<?xml version="1.0" encoding="UTF-8"?>
<svg id="Layer_1" data-name="Layer 1" xmlns="http://www.w3.org/2000/svg" version="1.1" viewBox="0 0 300 300">
  <defs>
    <style>
      .cls-1 {
        fill: #1b1a19;
      }

      .cls-1, .cls-2, .cls-3 {
        stroke-width: 0px;
      }

      .cls-2 {
        fill: #f70;
      }

      .cls-3 {
        fill: #fff;
      }
    </style>
  </defs>
  <g>
    <path class="cls-1" d="M2.7,246.8v-43.3h26.4c2.2,0,4.2.4,6,1.3,1.8.9,3.2,2.1,4.3,3.7,1.1,1.6,1.6,3.5,1.6,5.6s-.3,3.5-1,4.8c-.7,1.4-1.5,2.4-2.6,3.3-1.1.8-2.3,1.5-3.6,1.9v.3c1.5.3,2.9.9,4.2,1.8,1.3.9,2.3,2,3,3.5.7,1.5,1.1,3.3,1.1,5.4s-.6,4.6-1.8,6.3-2.7,3.1-4.6,4c-1.9.9-4.1,1.4-6.5,1.4H2.7ZM13.9,220.7h11.2c.9,0,1.7-.2,2.4-.6.7-.4,1.1-.9,1.5-1.6.4-.7.5-1.5.5-2.4,0-1.4-.4-2.4-1.2-3.2-.8-.8-1.8-1.1-3-1.1h-11.4v8.8ZM13.9,238.1h12.2c1.3,0,2.4-.4,3.2-1.2.8-.8,1.2-2,1.2-3.7s-.2-1.7-.5-2.4c-.4-.7-.9-1.2-1.6-1.6-.7-.4-1.5-.6-2.5-.6h-12.1v9.4h0Z"/>
    <path class="cls-1" d="M47.5,246.8v-43.3h11.2v43.3h-11.2Z"/>
    <path class="cls-1" d="M85.9,247.6c-7,0-12.2-1.8-15.9-5.5-3.6-3.7-5.4-9.3-5.4-16.9s.9-9.2,2.7-12.5c1.8-3.3,4.4-5.8,7.8-7.4,3.4-1.7,7.5-2.5,12.3-2.5s5.6.3,8.2,1c2.5.7,4.8,1.7,6.8,3,2,1.3,3.5,3,4.6,5,1.1,2,1.6,4.3,1.6,7h-11c0-1.1-.3-2.1-.8-3.1-.5-.9-1.2-1.7-2.1-2.3s-1.9-1.1-3.1-1.4c-1.2-.3-2.4-.5-3.7-.5-1.9,0-3.6.3-5.1.8s-2.7,1.3-3.7,2.3c-1,1.1-1.7,2.3-2.2,3.8-.5,1.5-.7,3.3-.7,5.3v2.8c0,2.7.4,4.9,1.3,6.7.8,1.8,2.1,3.2,3.8,4.1,1.7.9,3.8,1.4,6.2,1.4s3.7-.3,5.2-.9c1.5-.6,2.7-1.4,3.6-2.6.9-1.1,1.3-2.4,1.3-4v-.3h-11.6v-7.9h22.6v23.8h-6.5l-1.1-4.5c-1.3,1.2-2.7,2.2-4.2,3-1.5.8-3.1,1.4-4.9,1.8-1.8.4-3.8.6-6,.6Z"/>
    <path class="cls-2" d="M115.5,246.8v-43.3h25.1c3.2,0,5.8.6,8,1.8,2.1,1.2,3.7,2.8,4.8,4.9,1.1,2.1,1.6,4.4,1.6,7s-.6,5.2-1.9,7.4c-1.3,2.2-3.1,3.9-5.4,5.1l8.7,17.1h-12.6l-7.2-15.3h-9.9v15.3h-11.2ZM126.7,223.2h11.6c1.5,0,2.8-.5,3.7-1.6.9-1,1.4-2.4,1.4-4.1s-.2-2.1-.6-2.9c-.4-.8-1-1.4-1.8-1.9-.8-.4-1.7-.7-2.8-.7h-11.6v11.1h0Z"/>
    <path class="cls-2" d="M181.2,247.6c-4.7,0-8.8-.8-12.2-2.5-3.4-1.7-6-4.2-7.8-7.5-1.8-3.3-2.7-7.5-2.7-12.5s.9-9.2,2.7-12.5,4.4-5.8,7.8-7.4c3.4-1.7,7.4-2.5,12.2-2.5s8.8.8,12.2,2.5c3.4,1.7,5.9,4.1,7.8,7.4,1.8,3.3,2.7,7.5,2.7,12.5s-.9,9.2-2.7,12.5c-1.8,3.3-4.4,5.8-7.8,7.5-3.4,1.7-7.4,2.5-12.2,2.5ZM181.2,238.8c1.8,0,3.4-.3,4.8-.8,1.4-.5,2.6-1.4,3.5-2.4.9-1.1,1.6-2.3,2.1-3.8.5-1.5.7-3.2.7-5.1v-2.8c0-1.9-.2-3.7-.7-5.2-.5-1.5-1.2-2.8-2.1-3.8-.9-1.1-2.1-1.8-3.5-2.4-1.4-.5-3-.8-4.8-.8s-3.5.3-4.8.8c-1.4.5-2.5,1.4-3.5,2.4-.9,1.1-1.6,2.3-2.1,3.8-.5,1.5-.7,3.2-.7,5.2v2.8c0,1.9.2,3.6.7,5.1.5,1.5,1.1,2.8,2.1,3.8.9,1.1,2.1,1.8,3.5,2.4,1.4.5,3,.8,4.8.8Z"/>
    <path class="cls-2" d="M229.3,247.6c-4.6,0-8.6-.8-11.8-2.4-3.2-1.6-5.7-4.1-7.4-7.4-1.7-3.3-2.5-7.5-2.5-12.6,0-7.5,1.9-13.1,5.6-16.8,3.7-3.7,9.1-5.6,16.1-5.6s7.4.7,10.4,2c3,1.3,5.4,3.3,7.1,5.9,1.7,2.6,2.5,5.9,2.5,9.8h-11c0-1.8-.4-3.4-1.1-4.8-.7-1.3-1.8-2.3-3.1-3.1-1.3-.7-2.9-1.1-4.8-1.1s-4.3.5-5.8,1.5c-1.5,1-2.6,2.4-3.3,4.2-.7,1.8-1.1,4-1.1,6.6v2.8c0,2.6.4,4.8,1.1,6.6.7,1.8,1.8,3.2,3.3,4.2,1.5,1,3.4,1.4,5.8,1.4s3.7-.3,5.1-1c1.4-.7,2.5-1.7,3.2-3,.7-1.3,1.1-2.9,1.1-4.8h10.6c0,3.9-.8,7.2-2.5,9.8-1.7,2.6-4,4.6-7,5.9-3,1.3-6.5,1.9-10.5,1.9Z"/>
    <path class="cls-2" d="M254.7,246.8v-43.3h11.2v19.2l17.1-19.2h13.9l-16.1,17.7,16.4,25.6h-13.3l-10.9-17.9-7.2,6.6v11.3h-11.2Z"/>
  </g>
  <g>
    <path class="cls-3" d="M152.7,52.4c-12.7,0-23.8,8.1-27.6,20.3l-6.9,21.5h-10.7c-12.4,0-23.4,7.9-27.4,19.6l-19.2,55.7h178.2V52.4h-86.4Z"/>
    <path class="cls-1" d="M125,72.7l-6.9,21.5h-10.7c-12.4,0-23.4,7.9-27.4,19.6l-19.2,55.7h178.2V52.4h-86.4c-12.7,0-23.8,8.1-27.6,20.3ZM68.3,164.2l16.8-48.7c3.3-9.6,12.3-16.1,22.5-16.1h9l-20.6,64.7h-27.5ZM233.8,164.2H101.3l28.7-89.9c3.2-9.9,12.3-16.6,22.6-16.6h81.2v106.5Z"/>
    <path class="cls-1" d="M169.2,88.6h-5.3c0-3.4-2.8-6.2-6.1-6.2s-6.1,2.8-6.1,6.2h-5.3c0-6.3,5.1-11.4,11.4-11.4s11.4,5.1,11.4,11.4Z"/>
    <path class="cls-1" d="M214.2,88.6h-5.3c0-3.4-2.8-6.2-6.1-6.2s-6.1,2.8-6.1,6.2h-5.3c0-6.3,5.1-11.4,11.4-11.4s11.4,5.1,11.4,11.4Z"/>
    <path class="cls-1" d="M179.2,128.4v-5.3c11.6,0,21.1-9.5,21.1-21.2h5.2c0,14.6-11.8,26.5-26.3,26.5Z"/>
  </g>
</svg>