<?xml version="1.0" encoding="UTF-8" standalone="no"?><!DOCTYPE svg PUBLIC "-//W3C//DTD SVG 1.1//EN" "http://www.w3.org/Graphics/SVG/1.1/DTD/svg11.dtd"><svg width="100%" height="100%" viewBox="0 0 6671 6667" version="1.1" xmlns="http://www.w3.org/2000/svg" xmlns:xlink="http://www.w3.org/1999/xlink" xml:space="preserve" xmlns:serif="http://www.serif.com/" style="fill-rule:evenodd;clip-rule:evenodd;stroke-linejoin:round;stroke-miterlimit:2;"><rect id="cloudways-vertical" x="0.514" y="0" width="6666.67" height="6666.67" style="fill:none;"/><g><path d="M804.812,4967.32c-159.292,-0 -232.866,116.28 -232.866,228.651c0,112.327 69.512,224.676 232.866,224.676c59.28,0 122.58,-24.003 167.611,-66.188l69.36,66.188c-65.298,62.17 -149.169,92.321 -236.993,92.321c-228.804,0 -330.943,-154.512 -330.943,-316.997c0,-162.506 106.202,-322.905 330.943,-322.905c83.74,-0 165.504,30.129 230.932,94.254l-67.405,64.233c-45.009,-44.249 -104.225,-64.233 -163.505,-64.233Zm294.253,531.572l0,-617.833l102.053,0l-0,525.469l330.942,-0l0,92.342l-432.995,0l0,0.022Zm819.309,14.076c-218.724,0 -322.971,-156.576 -322.971,-319.104c0,-188.443 134.832,-322.906 322.971,-322.906c216.422,0 322.536,154.491 322.536,322.906c0,166.547 -104.333,319.104 -322.536,319.104Zm1.781,-551.644c-144.889,0 -224.567,100.163 -224.567,234.625c1.976,108.331 67.383,226.588 222.786,226.588c157.141,0 222.439,-108.287 222.439,-226.588c-0,-114.391 -67.362,-232.67 -220.658,-234.625Zm647.44,549.515c-140.848,-3.997 -259.323,-92.299 -259.323,-266.818l-0,-361.028l100.38,-0l-0,361.028c-0,112.371 67.079,172.629 158.922,176.626c100.336,5.909 173.823,-58.194 173.823,-176.626l0,-361.028l100.033,-0l-0,361.028c0.021,182.535 -122.667,272.944 -273.835,266.818Zm606.95,-11.947l-239.035,-0l0,-617.833l239.035,0c214.64,0 312.522,150.472 314.39,302.9c4.236,156.423 -95.883,314.933 -314.39,314.933Zm-0,-523.6l-139.024,-0l-0,429.302l139.024,0c152.948,0 218.507,-110.35 216.421,-220.635c-1.781,-104.334 -67.426,-208.667 -216.421,-208.667Zm1050.02,525.577l-90.04,-0l-83.74,-218.703l-67.427,-206.581l-69.491,208.688l-81.589,216.617l-87.651,0l-229.108,-617.876l112.436,0l159.574,475.442l163.267,-475.442l65.254,0l165.635,475.442l157.227,-475.442l112.393,0l-226.74,617.855Zm772.04,-0l-61.105,-130.423l-341.196,0l-59.281,130.423l-106.114,-0l281.719,-617.876l110.351,-0l281.958,617.876l-106.332,-0Zm-230.975,-515.498l-132.377,294.905l265.384,0l-133.007,-294.905Zm615.139,260.779l-0,252.742l-100.076,-0l-0,-252.742l-242.988,-361.05l-0,-4.041l120.277,0l171.652,272.749l179.558,-272.749l120.908,0l-0,4.041l-249.331,361.05Zm551.6,-294.905c-84.045,-0 -145.063,34.126 -145.063,94.254c-0,60.237 69.534,76.333 152.905,88.259c128.771,18.16 253.632,52.112 253.632,190.55c0,138.481 -128.815,190.528 -261.474,190.528c-120.582,0 -212.512,-36.038 -269.664,-140.349l75.595,-50.201c44.77,74.183 122.493,102.248 195.85,102.248c75.573,0 159.617,-24.003 159.617,-102.248c0,-66.188 -73.748,-90.192 -161.398,-102.27c-124.557,-16.009 -242.988,-48.202 -242.988,-180.536c-0,-128.38 128.423,-176.473 242.988,-176.473c89.736,-0 181.665,21.961 234.886,104.311l-79.505,50.179c-30.868,-42.12 -90.083,-68.252 -155.381,-68.252Z" style="fill:#2e39bf;fill-rule:nonzero;"/><path d="M1685.94,3947.52c-68.182,-0 -125.767,-56.354 -125.767,-123.524c0,-66.771 57.585,-123.596 125.767,-123.596l1062.22,0c-96.021,-87.199 -173.391,-193.939 -225.53,-313.782l-200.77,-0c-40.728,-0 -71.473,-30.167 -71.473,-70.208l-0,-103.521c-0,-40.005 30.709,-70.136 71.473,-70.136l133.377,0c-4.953,-38.313 -7.502,-77.315 -7.502,-116.904c0,-68.845 7.715,-135.919 22.357,-200.423l-1559.73,-0c-68.182,-0 -125.839,-56.788 -125.839,-123.488c0,-66.988 57.621,-123.596 125.839,-123.596l1655.73,0c71.723,-125.958 172.768,-233.619 294.024,-314.071l-1276.33,-0c-67.965,-0 -125.839,-56.825 -125.839,-123.56c0,-66.736 57.874,-123.56 125.839,-123.56l1555.01,-0c38.935,-114.696 97.371,-220.64 171.498,-314.072l-1484.96,-0c-68.182,-0 -125.838,-56.535 -125.838,-123.56c-0,-66.699 57.656,-123.56 125.838,-123.56l1763.65,0c165.11,-101.576 360.386,-160.309 569.63,-160.309c521.752,-0 956.767,365.047 1054.55,849.196c387.337,112.276 670.005,464.178 670.005,881.003c-0,507.55 -418.715,918.633 -935.344,918.633l-3.219,-0.02l-0,3.058l-3258.67,-0Zm169.894,-560.902l-908.251,-0c-40.765,-0 -71.221,-30.167 -71.221,-70.208l0,-103.521c0,-40.005 30.456,-70.136 71.221,-70.136l904.924,0c40.764,0 71.51,30.131 71.51,70.136l-0,103.521c3.291,36.858 -30.746,70.208 -68.183,70.208Z" style="fill:#2e39bf;fill-rule:nonzero;"/></g></svg>