<svg width="254" height="80" viewBox="0 0 254 80" fill="none" xmlns="http://www.w3.org/2000/svg">
<rect width="254" height="79.9535" fill="white"/>
<path fill-rule="evenodd" clip-rule="evenodd" d="M35.9429 32.061C36.524 30.6033 36.8148 29.0458 36.7987 27.4764C36.8156 25.9071 36.5248 24.3496 35.9429 22.892C35.394 21.5324 34.5722 20.2998 33.5283 19.2702C32.4508 18.2284 31.1733 17.4161 29.7729 16.8824C28.2198 16.2883 26.5683 15.994 24.9055 16.0152H16V38.9379H24.9055C26.5667 38.9615 28.2175 38.6737 29.7729 38.0898C31.1742 37.556 32.452 36.7423 33.5283 35.6981C34.5724 34.6628 35.394 33.4251 35.9429 32.061ZM30.8998 24.4203C31.2093 25.4093 31.3627 26.4404 31.3545 27.4766C31.3637 28.5193 31.2102 29.5569 30.8998 30.5522C30.6475 31.4094 30.2209 32.2055 29.6468 32.8902C29.0956 33.5283 28.4037 34.0291 27.6258 34.3534C26.7623 34.7023 25.8365 34.87 24.9055 34.8464H21.3487V20.1261H24.8903C25.8225 20.1085 26.7484 20.2827 27.6104 20.6381C28.3885 20.9624 29.0804 21.4634 29.6314 22.1013C30.2088 22.7792 30.6405 23.5685 30.8998 24.4203Z" fill="black"/>
<path fill-rule="evenodd" clip-rule="evenodd" d="M61.56 32.0035C62.129 30.5625 62.4144 29.0253 62.4005 27.4763C62.4172 25.93 62.1342 24.3953 61.5675 22.9567C61.0337 21.5987 60.2306 20.3629 59.2066 19.3234C58.158 18.2775 56.9093 17.4537 55.5351 16.9012C54.0199 16.294 52.3994 15.9927 50.7672 16.0149C49.1281 15.9923 47.5007 16.2908 45.9763 16.8936C44.5969 17.4409 43.3426 18.2623 42.2896 19.3081C41.2621 20.3462 40.4562 21.5823 39.921 22.9413C38.7998 25.8553 38.7998 29.0818 39.921 31.9958C41.0063 34.7724 43.2011 36.97 45.9763 38.0588C49.0515 39.2348 52.4523 39.2348 55.5274 38.0588C58.2942 36.9691 60.4808 34.7743 61.56 32.0035ZM56.643 24.4811C56.942 25.4509 57.0877 26.4616 57.0747 27.4763C57.0873 28.4964 56.9403 29.5121 56.6391 30.4868C56.3823 31.3146 55.9598 32.0815 55.3975 32.7409C54.8573 33.3576 54.1812 33.8402 53.4225 34.1506C52.5714 34.4863 51.6627 34.6512 50.748 34.6358C49.8337 34.6489 48.9253 34.4842 48.0737 34.1506C47.3119 33.8399 46.632 33.3574 46.0872 32.7409C45.5246 32.0822 45.1034 31.3149 44.8493 30.4868C44.5495 29.512 44.4038 28.4962 44.4176 27.4763C44.4099 26.4579 44.5621 25.4448 44.8684 24.4734C45.1225 23.6453 45.5437 22.8782 46.1062 22.2193C46.6514 21.6013 47.3309 21.1164 48.0928 20.802C48.9428 20.4622 49.8519 20.2947 50.7672 20.3092C51.6826 20.2924 52.5921 20.4601 53.4415 20.802C54.1952 21.1208 54.8657 21.6083 55.4013 22.227C55.9637 22.8864 56.3861 23.6533 56.643 24.4811Z" fill="black"/>
<path d="M90.4604 16.015V38.9377H85.7726V25.7532C85.7726 25.4477 85.7726 25.1192 85.7955 24.7639C85.8185 24.4086 85.8414 24.0456 85.8835 23.675L79.8012 35.461C79.6332 35.8072 79.3676 36.0966 79.0371 36.294C78.7061 36.4872 78.3279 36.585 77.9446 36.5766H77.2224C76.8391 36.585 76.4609 36.4872 76.1297 36.294C75.7994 36.0966 75.5338 35.8072 75.3658 35.461L69.2683 23.6558C69.2989 24.0328 69.3257 24.4033 69.3486 24.7675C69.3676 25.1267 69.379 25.4591 69.379 25.7648V38.9377H64.6914V16.015H68.7486C68.9817 16.015 69.1804 16.015 69.3561 16.015C69.5143 16.0227 69.6701 16.0549 69.8184 16.1105C69.962 16.1635 70.0922 16.2469 70.2005 16.355C70.3311 16.4913 70.4393 16.6473 70.5213 16.8173L76.424 28.4429C76.634 28.8249 76.8329 29.2567 77.0276 29.6884C77.2224 30.1201 77.4097 30.5594 77.5854 31.0101C77.765 30.548 77.9675 30.0972 78.1471 29.654C78.3267 29.2109 78.5482 28.7943 78.7659 28.3971L84.6493 16.8173C84.7342 16.6479 84.8436 16.4921 84.9742 16.355C85.0825 16.2469 85.2127 16.1635 85.3563 16.1105C85.5044 16.0549 85.6604 16.0227 85.8185 16.015C85.9903 16.015 86.2005 16.015 86.4259 16.015H90.4604Z" fill="black"/>
<path fill-rule="evenodd" clip-rule="evenodd" d="M112.204 38.9382H116.327L107.456 16.0192H102.012L93.1367 38.9418H97.2894C97.69 38.9551 98.0828 38.8296 98.4012 38.5865C98.6757 38.3826 98.8897 38.1079 99.0202 37.792L100.373 33.7958H109.091L110.443 37.792C110.584 38.1181 110.806 38.4022 111.089 38.6171C111.415 38.8444 111.807 38.9572 112.204 38.9382ZM105.755 23.8967L107.879 30.1737H101.602L103.707 23.9273C103.868 23.53 104.032 23.0602 104.212 22.5137C104.391 21.9674 104.559 21.3753 104.716 20.7334C104.734 20.7953 104.752 20.8571 104.77 20.9188C104.931 21.4669 105.089 22.0067 105.251 22.4908C105.43 23.0296 105.599 23.5148 105.755 23.8967Z" fill="black"/>
<path d="M124.349 38.9377H119V16.015H124.349V38.9377Z" fill="black"/>
<path d="M147.806 16.0151V38.9379H145.039C144.686 38.9485 144.335 38.8821 144.01 38.7429C143.688 38.5763 143.406 38.3416 143.184 38.0554L132.368 24.3856C132.41 24.7945 132.437 25.1917 132.452 25.5738C132.467 25.9559 132.475 26.315 132.475 26.6513V38.9379H127.787V16.0151H130.587C130.783 16.0136 130.978 16.0239 131.172 16.0457C131.318 16.065 131.461 16.1049 131.596 16.1641C131.728 16.2278 131.85 16.3101 131.959 16.4086C132.096 16.541 132.224 16.6827 132.341 16.8327L143.24 30.5863C143.191 30.1469 143.153 29.719 143.134 29.3065C143.114 28.8938 143.1 28.5004 143.1 28.1336V16.0151H147.806Z" fill="black"/>
<path d="M151.627 36.0727C151.626 35.6862 151.703 35.3036 151.856 34.9494C152.003 34.6103 152.213 34.3028 152.475 34.044C153.037 33.4995 153.789 33.1987 154.57 33.2073C154.964 33.2059 155.352 33.2826 155.716 33.4327C156.064 33.5785 156.382 33.7855 156.656 34.044C156.922 34.3015 157.135 34.6093 157.282 34.9494C157.434 35.3038 157.511 35.6866 157.508 36.0727C157.513 36.4663 157.436 36.8567 157.282 37.2187C157.139 37.5628 156.926 37.8735 156.656 38.1318C156.384 38.3904 156.065 38.5953 155.716 38.7354C155.352 38.8809 154.962 38.9549 154.57 38.9533C154.168 38.9573 153.769 38.8835 153.397 38.7354C153.051 38.596 152.736 38.3911 152.468 38.1318C152.203 37.8723 151.993 37.5616 151.849 37.2187C151.696 36.8564 151.62 36.4659 151.627 36.0727Z" fill="black"/>
<path d="M176.929 34.0553C177.097 34.0567 177.258 34.1303 177.368 34.2578L178.571 35.5566C177.654 36.6213 176.514 37.4717 175.233 38.0477C173.731 38.6777 172.111 38.9811 170.484 38.9379C168.981 38.9583 167.49 38.6737 166.102 38.1012C164.825 37.5693 163.676 36.7693 162.736 35.7555C161.781 34.703 161.048 33.4702 160.578 32.1298C160.051 30.6379 159.793 29.0654 159.814 27.4841C159.794 25.8999 160.065 24.3257 160.611 22.8383C161.106 21.4882 161.87 20.2531 162.858 19.209C163.834 18.1878 165.014 17.3845 166.324 16.8518C167.738 16.2809 169.253 15.9965 170.777 16.0151C172.223 15.9855 173.659 16.2453 175.004 16.7792C176.194 17.271 177.287 17.9752 178.228 18.8575L177.223 20.2558C177.161 20.3578 177.077 20.4451 176.978 20.5118C176.864 20.5828 176.731 20.6187 176.597 20.6149C176.341 20.5861 176.102 20.4794 175.909 20.3093C175.567 20.0621 175.212 19.8351 174.843 19.6292C173.599 18.942 172.194 18.6016 170.774 18.6436C169.686 18.6308 168.607 18.836 167.598 19.2472C166.651 19.634 165.799 20.2264 165.108 20.9817C164.386 21.7918 163.835 22.739 163.487 23.7668C163.085 24.9615 162.889 26.2159 162.907 27.4764C162.888 28.7489 163.092 30.015 163.512 31.2167C163.87 32.242 164.428 33.1861 165.154 33.9941C165.836 34.7427 166.675 35.3321 167.611 35.721C168.579 36.123 169.618 36.3257 170.667 36.3169C171.272 36.3216 171.875 36.2821 172.473 36.1985C172.982 36.1242 173.479 35.9962 173.96 35.8165C174.406 35.6532 174.83 35.4404 175.229 35.1823C175.64 34.909 176.03 34.6037 176.394 34.2692C176.539 34.1342 176.729 34.0579 176.929 34.0553Z" fill="black"/>
<path fill-rule="evenodd" clip-rule="evenodd" d="M201.057 32.1032C201.601 30.6223 201.872 29.0545 201.854 27.4766C201.872 25.8989 201.601 24.3309 201.057 22.85C200.557 21.4989 199.789 20.2629 198.798 19.2169C197.812 18.189 196.619 17.3806 195.299 16.8443C192.393 15.7186 189.17 15.7186 186.264 16.8443C184.947 17.3825 183.757 18.1907 182.772 19.2169C181.782 20.2636 181.015 21.4993 180.515 22.85C179.969 24.3309 179.698 25.8989 179.716 27.4766C179.698 29.0545 179.969 30.6223 180.515 32.1032C181.011 33.4529 181.781 34.6865 182.772 35.7289C183.757 36.7514 184.947 37.5547 186.264 38.0861C189.172 39.2024 192.391 39.2024 195.299 38.0861C196.619 37.5568 197.812 36.7533 198.798 35.7289C199.791 34.6876 200.56 33.4536 201.057 32.1032ZM198.172 23.767C198.565 24.9634 198.756 26.2173 198.737 27.4766C198.759 28.74 198.567 29.9979 198.172 31.1978C197.836 32.2228 197.292 33.1674 196.575 33.9714C195.88 34.7253 195.023 35.313 194.068 35.6906C191.952 36.4904 189.618 36.4904 187.5 35.6906C186.544 35.3055 185.685 34.7117 184.988 33.9523C184.265 33.1497 183.718 32.2049 183.382 31.1785C182.989 29.9849 182.797 28.7335 182.818 27.4766C182.798 26.2173 182.989 24.9634 183.382 23.767C183.718 22.7379 184.264 21.7906 184.988 20.9856C185.687 20.2263 186.546 19.6302 187.5 19.2397C189.614 18.4288 191.954 18.4288 194.068 19.2397C195.023 19.6284 195.88 20.2248 196.575 20.9856C197.294 21.792 197.838 22.7392 198.172 23.767Z" fill="black"/>
<path d="M228 16.0151V38.9379H225.279V22.0935C225.279 21.868 225.279 21.6312 225.302 21.3752C225.326 21.1192 225.337 20.8556 225.36 20.592L217.489 34.9226C217.299 35.368 216.854 35.6523 216.37 35.6407H215.924C215.438 35.6523 214.996 35.368 214.803 34.9226L206.781 20.5271C206.842 21.0469 206.875 21.5699 206.877 22.0935V38.9379H204.156V16.0151H206.449C206.664 16.0069 206.881 16.034 207.087 16.0953C207.277 16.1895 207.431 16.3476 207.519 16.5423L215.428 30.6513C215.553 30.9072 215.679 31.1747 215.809 31.4497C215.938 31.7248 216.047 32.0114 216.153 32.2978C216.26 32.0114 216.374 31.7248 216.489 31.442C216.601 31.1666 216.729 30.8975 216.87 30.636L224.646 16.5423C224.725 16.3448 224.877 16.185 225.069 16.0953C225.279 16.0344 225.498 16.0073 225.714 16.0151H228Z" fill="black"/>
<path d="M17.233 60.9534V50.7716H18.4062V54.5301H18.5057C18.5919 54.3976 18.7112 54.2285 18.8636 54.023C19.0194 53.8142 19.2415 53.6286 19.5298 53.4662C19.8215 53.3005 20.2159 53.2176 20.7131 53.2176C21.3561 53.2176 21.9228 53.3784 22.4134 53.6999C22.9039 54.0214 23.2867 54.4771 23.5618 55.0671C23.8369 55.657 23.9744 56.3531 23.9744 57.1551C23.9744 57.9638 23.8369 58.6648 23.5618 59.2581C23.2867 59.8481 22.9055 60.3055 22.4183 60.6303C21.9311 60.9518 21.3693 61.1125 20.733 61.1125C20.2424 61.1125 19.8497 61.0313 19.5547 60.8689C19.2597 60.7032 19.0327 60.5159 18.8736 60.3071C18.7145 60.095 18.5919 59.9193 18.5057 59.7801H18.3665V60.9534H17.233ZM18.3864 57.1352C18.3864 57.712 18.4709 58.2207 18.6399 58.6615C18.8089 59.099 19.0559 59.4421 19.3807 59.6906C19.7055 59.9359 20.1032 60.0585 20.5739 60.0585C21.0644 60.0585 21.4737 59.9293 21.8018 59.6708C22.1333 59.4089 22.3819 59.0576 22.5476 58.6168C22.7166 58.1727 22.8011 57.6788 22.8011 57.1352C22.8011 56.5983 22.7183 56.1144 22.5526 55.6835C22.3902 55.2494 22.1432 54.9063 21.8118 54.6544C21.4837 54.3992 21.071 54.2716 20.5739 54.2716C20.0966 54.2716 19.6955 54.3926 19.3707 54.6345C19.0459 54.8732 18.8007 55.2079 18.6349 55.6388C18.4692 56.0664 18.3864 56.5652 18.3864 57.1352ZM26.2514 63.8171C26.0526 63.8171 25.8752 63.8005 25.7195 63.7674C25.5637 63.7375 25.456 63.7077 25.3963 63.6779L25.6946 62.6438C25.9796 62.7167 26.2315 62.7432 26.4503 62.7233C26.669 62.7034 26.8629 62.6057 27.032 62.43C27.2043 62.2576 27.3617 61.9776 27.5043 61.5898L27.723 60.9932L24.8991 53.3171H26.1719L28.2798 59.4023H28.3594L30.4673 53.3171H31.7401L28.4986 62.0671C28.3527 62.4615 28.1721 62.7879 27.9567 63.0465C27.7412 63.3083 27.491 63.5022 27.206 63.6281C26.9242 63.7541 26.6061 63.8171 26.2514 63.8171ZM45.4592 50.7716V60.9534H44.266L38.7177 52.9591H38.6183V60.9534H37.3853V50.7716H38.5785L44.1467 58.7858H44.2461V50.7716H45.4592ZM50.9689 61.1125C50.2331 61.1125 49.5984 60.9501 49.0648 60.6253C48.5345 60.2972 48.1252 59.8398 47.8368 59.2531C47.5518 58.6632 47.4093 57.9771 47.4093 57.1949C47.4093 56.4127 47.5518 55.7233 47.8368 55.1267C48.1252 54.5268 48.5262 54.0595 49.04 53.7247C49.557 53.3867 50.1602 53.2176 50.8496 53.2176C51.2473 53.2176 51.6401 53.2839 52.0279 53.4165C52.4157 53.5491 52.7686 53.7645 53.0868 54.0628C53.405 54.3578 53.6586 54.7489 53.8475 55.2361C54.0364 55.7233 54.1309 56.3232 54.1309 57.0358V57.533H48.2445V56.5188H52.9377C52.9377 56.0879 52.8515 55.7034 52.6792 55.3654C52.5101 55.0273 52.2682 54.7605 51.9533 54.5649C51.6417 54.3694 51.2739 54.2716 50.8496 54.2716C50.3823 54.2716 49.9779 54.3876 49.6365 54.6196C49.2985 54.8483 49.0383 55.1466 48.856 55.5145C48.6737 55.8824 48.5826 56.2768 48.5826 56.6977V57.3739C48.5826 57.9506 48.682 58.4395 48.8809 58.8405C49.083 59.2382 49.3631 59.5415 49.7211 59.7503C50.079 59.9558 50.495 60.0585 50.9689 60.0585C51.2772 60.0585 51.5556 60.0155 51.8042 59.9293C52.056 59.8398 52.2731 59.7072 52.4554 59.5316C52.6377 59.3526 52.7786 59.1305 52.878 58.8654L54.0115 59.1835C53.8922 59.568 53.6917 59.9061 53.41 60.1977C53.1283 60.4861 52.7802 60.7115 52.3659 60.8739C51.9516 61.033 51.486 61.1125 50.9689 61.1125ZM59.2367 53.3171V54.3114H55.2793V53.3171H59.2367ZM56.4327 51.4875H57.606V58.7659C57.606 59.0974 57.6541 59.3459 57.7502 59.5117C57.8496 59.6741 57.9756 59.7834 58.128 59.8398C58.2838 59.8928 58.4479 59.9193 58.6202 59.9193C58.7495 59.9193 58.8555 59.9127 58.9384 59.8995C59.0212 59.8829 59.0875 59.8696 59.1373 59.8597L59.3759 60.9137C59.2963 60.9435 59.1853 60.9733 59.0428 61.0031C58.9003 61.0363 58.7196 61.0529 58.5009 61.0529C58.1694 61.0529 57.8446 60.9816 57.5265 60.8391C57.2116 60.6966 56.9498 60.4795 56.7409 60.1878C56.5355 59.8961 56.4327 59.5282 56.4327 59.0841V51.4875ZM62.7317 60.9534L60.405 53.3171H61.638L63.2885 59.1637H63.3681L64.9988 53.3171H66.2516L67.8624 59.1438H67.9419L69.5925 53.3171H70.8255L68.4988 60.9534H67.3453L65.6749 55.087H65.5556L63.8851 60.9534H62.7317ZM75.2191 61.1125C74.5297 61.1125 73.9248 60.9485 73.4045 60.6203C72.8874 60.2922 72.4831 59.8332 72.1914 59.2432C71.9031 58.6532 71.7589 57.9638 71.7589 57.175C71.7589 56.3796 71.9031 55.6852 72.1914 55.0919C72.4831 54.4986 72.8874 54.0379 73.4045 53.7098C73.9248 53.3817 74.5297 53.2176 75.2191 53.2176C75.9085 53.2176 76.5117 53.3817 77.0288 53.7098C77.5491 54.0379 77.9535 54.4986 78.2418 55.0919C78.5335 55.6852 78.6793 56.3796 78.6793 57.175C78.6793 57.9638 78.5335 58.6532 78.2418 59.2432C77.9535 59.8332 77.5491 60.2922 77.0288 60.6203C76.5117 60.9485 75.9085 61.1125 75.2191 61.1125ZM75.2191 60.0585C75.7428 60.0585 76.1737 59.9243 76.5117 59.6558C76.8498 59.3874 77.1 59.0344 77.2624 58.5969C77.4248 58.1594 77.506 57.6854 77.506 57.175C77.506 56.6646 77.4248 56.189 77.2624 55.7482C77.1 55.3074 76.8498 54.9511 76.5117 54.6793C76.1737 54.4075 75.7428 54.2716 75.2191 54.2716C74.6954 54.2716 74.2646 54.4075 73.9265 54.6793C73.5884 54.9511 73.3382 55.3074 73.1758 55.7482C73.0134 56.189 72.9322 56.6646 72.9322 57.175C72.9322 57.6854 73.0134 58.1594 73.1758 58.5969C73.3382 59.0344 73.5884 59.3874 73.9265 59.6558C74.2646 59.9243 74.6954 60.0585 75.2191 60.0585ZM80.4703 60.9534V53.3171H81.6039V54.4705H81.6834C81.8226 54.0926 82.0745 53.7861 82.4391 53.5507C82.8037 53.3154 83.2147 53.1977 83.6721 53.1977C83.7582 53.1977 83.8659 53.1994 83.9952 53.2027C84.1245 53.206 84.2222 53.211 84.2885 53.2176V54.4108C84.2488 54.4009 84.1576 54.386 84.0151 54.3661C83.8759 54.3429 83.7284 54.3313 83.5726 54.3313C83.2014 54.3313 82.87 54.4092 82.5783 54.5649C82.29 54.7174 82.0613 54.9295 81.8922 55.2013C81.7265 55.4698 81.6436 55.7763 81.6436 56.121V60.9534H80.4703ZM86.7731 58.1693L86.7532 56.7176H86.9918L90.3327 53.3171H91.7844L88.2248 56.9165H88.1254L86.7731 58.1693ZM85.6793 60.9534V50.7716H86.8526V60.9534H85.6793ZM90.5316 60.9534L87.5487 57.175L88.3839 56.3597L92.0231 60.9534H90.5316ZM102.959 53.3171C102.9 52.8133 102.658 52.4222 102.233 52.1438C101.809 51.8654 101.289 51.7262 100.672 51.7262C100.222 51.7262 99.8272 51.7991 99.4892 51.9449C99.1544 52.0907 98.8926 52.2913 98.7037 52.5465C98.5181 52.8017 98.4252 53.0917 98.4252 53.4165C98.4252 53.6883 98.4899 53.9219 98.6191 54.1175C98.7517 54.3097 98.9208 54.4705 99.1262 54.5997C99.3317 54.7257 99.5472 54.8301 99.7725 54.9129C99.9979 54.9925 100.205 55.0571 100.394 55.1068L101.428 55.3852C101.693 55.4549 101.988 55.551 102.313 55.6736C102.641 55.7962 102.954 55.9636 103.253 56.1757C103.554 56.3845 103.803 56.653 103.998 56.9811C104.194 57.3093 104.292 57.712 104.292 58.1892C104.292 58.7394 104.148 59.2366 103.859 59.6807C103.574 60.1248 103.157 60.4778 102.606 60.7397C102.059 61.0015 101.395 61.1324 100.613 61.1324C99.8836 61.1324 99.2522 61.0147 98.7186 60.7794C98.1883 60.5441 97.7707 60.216 97.4657 59.795C97.1641 59.3741 96.9934 58.8852 96.9537 58.3284H98.2264C98.2595 58.7129 98.3888 59.0311 98.6142 59.283C98.8429 59.5316 99.1312 59.7172 99.4792 59.8398C99.8306 59.9591 100.208 60.0188 100.613 60.0188C101.083 60.0188 101.506 59.9425 101.881 59.7901C102.255 59.6343 102.552 59.4189 102.77 59.1438C102.989 58.8654 103.099 58.5406 103.099 58.1693C103.099 57.8313 103.004 57.5562 102.815 57.3441C102.626 57.1319 102.378 56.9596 102.069 56.827C101.761 56.6944 101.428 56.5784 101.07 56.479L99.8173 56.121C99.0218 55.8924 98.3921 55.5659 97.9281 55.1416C97.4641 54.7174 97.2321 54.1622 97.2321 53.4762C97.2321 52.9061 97.3862 52.4089 97.6944 51.9847C98.006 51.5571 98.4236 51.2257 98.9473 50.9904C99.4743 50.7517 100.063 50.6324 100.712 50.6324C101.368 50.6324 101.952 50.7501 102.462 50.9854C102.973 51.2174 103.377 51.5356 103.675 51.9399C103.977 52.3443 104.136 52.8033 104.153 53.3171H102.959ZM109.262 61.1125C108.573 61.1125 107.968 60.9485 107.447 60.6203C106.93 60.2922 106.526 59.8332 106.234 59.2432C105.946 58.6532 105.802 57.9638 105.802 57.175C105.802 56.3796 105.946 55.6852 106.234 55.0919C106.526 54.4986 106.93 54.0379 107.447 53.7098C107.968 53.3817 108.573 53.2176 109.262 53.2176C109.951 53.2176 110.555 53.3817 111.072 53.7098C111.592 54.0379 111.996 54.4986 112.285 55.0919C112.576 55.6852 112.722 56.3796 112.722 57.175C112.722 57.9638 112.576 58.6532 112.285 59.2432C111.996 59.8332 111.592 60.2922 111.072 60.6203C110.555 60.9485 109.951 61.1125 109.262 61.1125ZM109.262 60.0585C109.786 60.0585 110.217 59.9243 110.555 59.6558C110.893 59.3874 111.143 59.0344 111.305 58.5969C111.468 58.1594 111.549 57.6854 111.549 57.175C111.549 56.6646 111.468 56.189 111.305 55.7482C111.143 55.3074 110.893 54.9511 110.555 54.6793C110.217 54.4075 109.786 54.2716 109.262 54.2716C108.738 54.2716 108.308 54.4075 107.969 54.6793C107.631 54.9511 107.381 55.3074 107.219 55.7482C107.056 56.189 106.975 56.6646 106.975 57.175C106.975 57.6854 107.056 58.1594 107.219 58.5969C107.381 59.0344 107.631 59.3874 107.969 59.6558C108.308 59.9243 108.738 60.0585 109.262 60.0585ZM115.687 50.7716V60.9534H114.513V50.7716H115.687ZM122.648 57.8313V53.3171H123.821V60.9534H122.648V59.6608H122.569C122.39 60.0486 122.111 60.3784 121.733 60.6502C121.355 60.9186 120.878 61.0529 120.301 61.0529C119.824 61.0529 119.4 60.9485 119.029 60.7397C118.658 60.5275 118.366 60.2093 118.154 59.7851C117.942 59.3575 117.836 58.819 117.836 58.1693V53.3171H119.009V58.0898C119.009 58.6466 119.165 59.0907 119.476 59.4222C119.791 59.7536 120.192 59.9193 120.679 59.9193C120.971 59.9193 121.268 59.8448 121.569 59.6956C121.874 59.5465 122.129 59.3178 122.335 59.0095C122.544 58.7013 122.648 58.3085 122.648 57.8313ZM129.291 53.3171V54.3114H125.334V53.3171H129.291ZM126.487 51.4875H127.661V58.7659C127.661 59.0974 127.709 59.3459 127.805 59.5117C127.904 59.6741 128.03 59.7834 128.183 59.8398C128.338 59.8928 128.503 59.9193 128.675 59.9193C128.804 59.9193 128.91 59.9127 128.993 59.8995C129.076 59.8829 129.142 59.8696 129.192 59.8597L129.431 60.9137C129.351 60.9435 129.24 60.9733 129.097 61.0031C128.955 61.0363 128.774 61.0529 128.556 61.0529C128.224 61.0529 127.899 60.9816 127.581 60.8391C127.266 60.6966 127.004 60.4795 126.796 60.1878C126.59 59.8961 126.487 59.5282 126.487 59.0841V51.4875ZM131.056 60.9534V53.3171H132.23V60.9534H131.056ZM131.653 52.0443C131.424 52.0443 131.227 51.9665 131.061 51.8107C130.899 51.6549 130.818 51.4676 130.818 51.2489C130.818 51.0301 130.899 50.8429 131.061 50.6871C131.227 50.5313 131.424 50.4534 131.653 50.4534C131.882 50.4534 132.077 50.5313 132.24 50.6871C132.405 50.8429 132.488 51.0301 132.488 51.2489C132.488 51.4676 132.405 51.6549 132.24 51.8107C132.077 51.9665 131.882 52.0443 131.653 52.0443ZM137.481 61.1125C136.791 61.1125 136.187 60.9485 135.666 60.6203C135.149 60.2922 134.745 59.8332 134.453 59.2432C134.165 58.6532 134.021 57.9638 134.021 57.175C134.021 56.3796 134.165 55.6852 134.453 55.0919C134.745 54.4986 135.149 54.0379 135.666 53.7098C136.187 53.3817 136.791 53.2176 137.481 53.2176C138.17 53.2176 138.773 53.3817 139.29 53.7098C139.811 54.0379 140.215 54.4986 140.504 55.0919C140.795 55.6852 140.941 56.3796 140.941 57.175C140.941 57.9638 140.795 58.6532 140.504 59.2432C140.215 59.8332 139.811 60.2922 139.29 60.6203C138.773 60.9485 138.17 61.1125 137.481 61.1125ZM137.481 60.0585C138.004 60.0585 138.435 59.9243 138.773 59.6558C139.112 59.3874 139.362 59.0344 139.524 58.5969C139.687 58.1594 139.768 57.6854 139.768 57.175C139.768 56.6646 139.687 56.189 139.524 55.7482C139.362 55.3074 139.112 54.9511 138.773 54.6793C138.435 54.4075 138.004 54.2716 137.481 54.2716C136.957 54.2716 136.526 54.4075 136.188 54.6793C135.85 54.9511 135.6 55.3074 135.438 55.7482C135.275 56.189 135.194 56.6646 135.194 57.175C135.194 57.6854 135.275 58.1594 135.438 58.5969C135.6 59.0344 135.85 59.3874 136.188 59.6558C136.526 59.9243 136.957 60.0585 137.481 60.0585ZM143.905 56.3597V60.9534H142.732V53.3171H143.866V54.5102H143.965C144.144 54.1225 144.416 53.8109 144.78 53.5756C145.145 53.337 145.616 53.2176 146.192 53.2176C146.709 53.2176 147.162 53.3237 147.55 53.5358C147.937 53.7446 148.239 54.0628 148.454 54.4904C148.67 54.9146 148.778 55.4515 148.778 56.1012V60.9534H147.604V56.1807C147.604 55.5808 147.448 55.1135 147.137 54.7787C146.825 54.4406 146.398 54.2716 145.854 54.2716C145.48 54.2716 145.145 54.3528 144.85 54.5152C144.558 54.6776 144.328 54.9146 144.159 55.2262C143.99 55.5377 143.905 55.9156 143.905 56.3597ZM156.331 55.0273L155.277 55.3256C155.21 55.1499 155.113 54.9792 154.983 54.8135C154.857 54.6445 154.685 54.5053 154.466 54.3959C154.248 54.2865 153.967 54.2318 153.626 54.2318C153.159 54.2318 152.769 54.3396 152.458 54.555C152.15 54.7671 151.995 55.0372 151.995 55.3654C151.995 55.657 152.101 55.8874 152.314 56.0564C152.526 56.2254 152.857 56.3663 153.308 56.479L154.441 56.7574C155.124 56.9231 155.633 57.1767 155.968 57.5181C156.302 57.8561 156.47 58.292 156.47 58.8256C156.47 59.2631 156.344 59.6542 156.092 59.9989C155.843 60.3436 155.495 60.6154 155.048 60.8142C154.6 61.0131 154.08 61.1125 153.487 61.1125C152.708 61.1125 152.063 60.9435 151.553 60.6054C151.042 60.2674 150.719 59.7735 150.583 59.1239L151.697 58.8455C151.803 59.2565 152.004 59.5647 152.299 59.7702C152.597 59.9757 152.986 60.0784 153.467 60.0784C154.014 60.0784 154.448 59.9624 154.77 59.7304C155.094 59.4951 155.257 59.2134 155.257 58.8852C155.257 58.6201 155.164 58.398 154.978 58.2191C154.793 58.0368 154.508 57.9009 154.123 57.8114L152.85 57.5131C152.151 57.3474 151.637 57.0905 151.309 56.7425C150.984 56.3912 150.822 55.952 150.822 55.425C150.822 54.9941 150.943 54.613 151.185 54.2816C151.43 53.9501 151.763 53.6899 152.184 53.501C152.609 53.3121 153.089 53.2176 153.626 53.2176C154.382 53.2176 154.975 53.3834 155.406 53.7148C155.84 54.0462 156.148 54.4837 156.331 55.0273Z" fill="#1A1A1A"/>
</svg>
