<?xml version="1.0" encoding="UTF-8" standalone="no"?><!DOCTYPE svg PUBLIC "-//W3C//DTD SVG 1.1//EN" "http://www.w3.org/Graphics/SVG/1.1/DTD/svg11.dtd"><svg width="100%" height="100%" viewBox="0 0 6671 6667" version="1.1" xmlns="http://www.w3.org/2000/svg" xmlns:xlink="http://www.w3.org/1999/xlink" xml:space="preserve" xmlns:serif="http://www.serif.com/" style="fill-rule:evenodd;clip-rule:evenodd;stroke-linejoin:round;stroke-miterlimit:2;"><rect id="dreamhost-vertical" x="3.406" y="0" width="6666.67" height="6666.67" style="fill:none;"/><g><g><path id="Shape" d="M86.739,5082.15l295.017,-0c287.253,-0 527.925,124.218 527.925,451.221c0,290.048 -235.703,445.941 -501.839,445.941l-321.103,-0l-0,-897.162Zm196.574,714.251l102.169,0c182.911,0 320.171,-69.561 320.171,-273.589c0,-176.079 -140.055,-258.373 -306.196,-258.373l-116.765,0l0.621,531.962Z" style="fill:#1f3244;fill-rule:nonzero;"/><path id="Path" d="M1011.85,5363.51l189.121,-0l0,98.442l2.485,0c40.371,-74.841 93.163,-113.969 176.389,-113.969c20.882,-0.549 41.749,1.537 62.109,6.211l-0,173.594c-26.173,-8.055 -53.36,-12.342 -80.742,-12.733c-143.782,0 -161.483,83.537 -161.483,206.512l0,257.131l-187.879,-0l0,-615.188Z" style="fill:#1f3244;fill-rule:nonzero;"/><path id="Shape1" serif:id="Shape" d="M2083.85,5872.8c-63.403,77.41 -158.313,122.128 -258.373,121.736c-189.122,0 -341.599,-126.704 -341.599,-323.279c0,-196.574 151.235,-323.276 341.599,-323.276c176.389,-0 287.253,126.702 287.253,323.276l0,59.625l-437.557,-0c11.011,69.799 71.893,120.733 142.54,119.249c54.717,-0.451 105.468,-28.633 134.776,-74.842l131.361,97.511Zm-160.241,-271.105c0.768,-31.006 -11.168,-60.98 -33.041,-82.97c-21.873,-21.99 -51.782,-34.087 -82.792,-33.484c-68.824,-4.1 -128.235,47.713 -133.534,116.454l249.367,0Z" style="fill:#1f3244;fill-rule:nonzero;"/><path id="Shape2" serif:id="Shape" d="M2590.66,5901.99l-2.485,0c-44.108,62.677 -117.598,97.953 -194.09,93.164c-114.591,-0 -217.381,-65.836 -217.381,-190.053c0,-213.034 257.131,-217.381 414.577,-217.381c-0.597,-30.975 -13.915,-60.339 -36.825,-81.193c-22.91,-20.854 -53.393,-31.36 -84.288,-29.05c-60.146,0.135 -117.089,27.126 -155.272,73.599l-100.926,-104.033c74.318,-65.711 170.685,-100.975 269.862,-98.753c220.487,0 279.49,112.728 279.49,317.997l0,313.029l-173.905,-0l1.243,-77.326Zm-46.582,-192.537c-58.072,0 -186.327,4.969 -186.327,88.816c0,45.65 47.824,67.077 89.437,67.077c74.531,0 143.782,-39.128 143.782,-115.212l0,-39.749l-46.581,-0l-0.311,-0.932Z" style="fill:#1f3244;fill-rule:nonzero;"/><path id="Path1" serif:id="Path" d="M2883.19,5363.51l181.669,-0l-0,83.536l2.484,0c36.794,-63.443 105.581,-101.419 178.873,-98.753c85.711,0 155.272,35.402 189.122,110.243c36.069,-72.976 112.938,-116.638 194.09,-110.243c166.452,0 217.381,118.007 217.381,267.379l-0,363.647l-189.122,-0l0,-358.679c0,-57.14 -21.427,-105.274 -83.225,-105.274c-86.953,-0 -114.591,62.109 -114.591,138.192l-0,325.761l-189.743,-0l0,-325.761c0,-45.65 2.485,-138.192 -84.468,-138.192c-98.442,-0 -113.348,77.325 -113.348,157.135l-0,306.818l-189.122,-0l0,-615.809Z" style="fill:#1f3244;fill-rule:nonzero;"/><path id="Path2" serif:id="Path" d="M3966.06,5082.15l196.574,-0l0,334.456l381.97,-0l-0,-334.456l196.574,-0l-0,897.162l-196.574,-0l-0,-387.559l-381.97,-0l0,387.559l-196.574,-0l-0,-897.162Z" style="fill:#1f3244;fill-rule:nonzero;"/><path id="Shape3" serif:id="Shape" d="M5166.31,5348.29c189.121,0 341.599,126.702 341.599,323.277c-0,196.574 -151.235,323.276 -341.599,323.276c-190.364,0 -341.599,-126.702 -341.599,-323.276c0,-196.575 151.235,-323.277 341.599,-323.277m-0,479.17c93.163,-0 151.235,-62.109 151.235,-155.272c-0,-93.163 -56.83,-155.272 -151.235,-155.272c-94.405,-0 -151.235,62.109 -151.235,155.272c-0,93.163 56.83,155.272 151.235,155.272" style="fill:#1f3244;fill-rule:nonzero;"/><path id="Path3" serif:id="Path" d="M5940.19,5544.86c-26.26,-33.679 -66.929,-52.919 -109.622,-51.861c-31.055,-0 -69.251,13.974 -69.251,50.618c-0,91.3 318.928,13.975 318.928,248.436c0,157.135 -151.235,202.785 -282.284,202.785c-85.71,0 -180.426,-21.427 -240.672,-83.536l114.591,-127.944c31.143,42.521 80.829,67.48 133.534,67.077c42.855,0 85.71,-11.49 85.71,-44.408c0,-98.753 -318.929,-15.216 -318.929,-248.435c0,-144.403 128.565,-207.754 257.131,-207.754c80.741,-0 170.178,20.185 227.008,81.052l-116.144,113.97Z" style="fill:#1f3244;fill-rule:nonzero;"/><path id="Path4" serif:id="Path" d="M6586.74,5515.67l-166.452,-0l0,205.269c0,65.836 7.453,113.97 89.437,113.97c26.861,1.889 53.675,-4.274 77.015,-17.701l-0,158.377c-42.678,13.885 -87.433,20.293 -132.292,18.944c-126.081,-0 -222.971,-51.861 -222.971,-186.327l0,-292.532l-121.112,-0l0,-152.167l121.112,-0l0,-181.047l189.122,-0l-0,182.6l166.141,-0l-0,150.614Z" style="fill:#1f3244;fill-rule:nonzero;"/></g><g><path id="Path5" serif:id="Path" d="M5194.67,3510.25c-320.732,179.898 -683.903,270.328 -1051.54,261.835c-536.312,-6.376 -1048.12,-225.56 -1422.81,-609.325c-374.693,-383.765 -581.573,-900.669 -575.12,-1436.98c9.238,-361.269 117.643,-713.041 313.36,-1016.84c-621.07,343.946 -1012.97,991.641 -1029.46,1701.4c-6.453,536.311 200.427,1053.21 575.121,1436.98c374.693,383.765 886.502,602.949 1422.81,609.325c714.609,16.005 1385.52,-342.985 1768.7,-946.39" style="fill:#1f3244;fill-rule:nonzero;"/><path id="Path6" serif:id="Path" d="M4125.25,3538.64l37.855,0c293.422,0 582.334,-72.228 841.236,-210.309c317.351,-544.865 320.431,-1217.52 8.083,-1765.27c-312.349,-547.749 -892.826,-887.639 -1523.36,-891.981c-294.347,-0.064 -583.86,74.847 -841.235,217.67c-161.655,261.759 -250.251,562.039 -256.577,869.627c-11.115,969.772 764.267,1765.84 1734,1780.26" style="fill:#3e95be;fill-opacity:0.8;fill-rule:nonzero;"/></g></g></svg>