<?xml version="1.0" encoding="UTF-8" standalone="no"?><!DOCTYPE svg PUBLIC "-//W3C//DTD SVG 1.1//EN" "http://www.w3.org/Graphics/SVG/1.1/DTD/svg11.dtd"><svg width="100%" height="100%" viewBox="0 0 6671 6667" version="1.1" xmlns="http://www.w3.org/2000/svg" xmlns:xlink="http://www.w3.org/1999/xlink" xml:space="preserve" xmlns:serif="http://www.serif.com/" style="fill-rule:evenodd;clip-rule:evenodd;stroke-linejoin:round;stroke-miterlimit:2;"><rect id="godaddy-vertical" x="3.632" y="0" width="6666.67" height="6666.67" style="fill:none;"/><g><g><path d="M6409.51,4995.48l-226.427,776.533c-43.729,138.182 -141.244,220.829 -292.982,220.829c-69.004,0 -131.798,-14.08 -181.036,-42.241c-28.686,-16.355 -52.475,-31.31 -52.475,-55.274c0,-14.867 4.81,-22.564 13.556,-36.469l44.953,-67.342c12.681,-18.804 22.04,-24.926 35.683,-24.926c10.811,0.27 21.269,3.907 29.91,10.408c28.249,18.278 54.486,34.021 94.454,34.021c46.702,-0 82.385,-14.955 101.625,-70.578l19.416,-64.456l-91.655,-0c-22.564,-0 -34.983,-13.468 -40.581,-31.572l-202.638,-648.933c-7.522,-25.538 -0.61,-51.075 36.907,-51.075l159.61,-0c19.502,-0 33.146,6.647 41.716,34.546l149.64,522.556l139.932,-522.556c4.458,-18.017 16.529,-34.546 40.579,-34.546l151.389,-0c29.823,-0.101 38.831,20.902 28.424,51.075Z" style="fill:#101010;"/><path d="M1178.09,5226.44l0,414.814c0.135,9.136 -3.427,17.939 -9.887,24.4c-6.461,6.46 -15.264,10.027 -24.4,9.883l-125.239,0c-9.142,0.168 -17.96,-3.388 -24.426,-9.856c-6.467,-6.466 -10.025,-15.284 -9.857,-24.427l0,-108.884c-79.498,100.401 -217.768,163.632 -374.142,163.632c-293.681,0 -523.169,-220.917 -523.169,-535.413c0,-326.827 247.766,-552.117 560.776,-552.117c231.062,-0 415.771,99.351 497.806,299.191c2.298,5.28 3.574,10.949 3.761,16.704c-0,9.446 -6.21,16.617 -26.237,23.526l-146.229,56.323c-8.82,3.659 -18.704,3.815 -27.636,0.433c-7.831,-4.626 -13.964,-11.647 -17.492,-20.028c-52.474,-99.789 -145.878,-167.568 -289.658,-167.568c-186.459,-0 -320.006,145.616 -320.006,334.436c0,183.048 113.694,333.562 325.341,333.562c111.333,0 200.102,-52.474 241.469,-110.109l-132.06,0c-9.136,0.168 -17.939,-3.421 -24.4,-9.883c-6.461,-6.461 -10.026,-15.264 -9.883,-24.4l-0,-112.732c-0.135,-9.136 3.423,-17.939 9.883,-24.4c6.461,-6.46 15.264,-10.027 24.4,-9.883l386.998,-0c8.967,-0.487 17.725,2.799 24.213,9.006c6.487,6.206 10.13,14.812 10.074,23.79Z" style="fill:#101010;"/><path d="M6413.62,4790.74l0,-10.058c-0.01,-0.708 0.217,-1.388 0.703,-1.924c0.486,-0.432 1.162,-0.697 1.837,-0.702l63.931,-0c0.681,-0.017 1.345,0.216 1.838,0.702c0.486,0.541 0.707,1.222 0.697,1.924l0,10.058c-0.003,0.676 -0.27,1.33 -0.697,1.837c-0.487,0.487 -1.158,0.725 -1.838,0.698l-23.35,-0l-0,63.057c-0.051,1.432 -1.195,2.577 -2.627,2.621l-12.069,-0c-0.669,-0.004 -1.302,-0.27 -1.751,-0.789c-0.486,-0.486 -0.788,-1.14 -0.788,-1.837l-0,-63.057l-23.352,0c-0.686,0.051 -1.362,-0.216 -1.853,-0.686c-0.487,-0.486 -0.74,-1.162 -0.686,-1.853l0.005,0.009Z" style="fill:#101010;"/><path d="M6525.39,4780.33l17.492,40.493l17.491,-40.493c0.27,-0.718 0.757,-1.33 1.399,-1.751c0.73,-0.379 1.54,-0.557 2.362,-0.54l20.289,0c0.67,-0.05 1.336,0.216 1.816,0.654c0.487,0.487 0.746,1.119 0.718,1.794l-0,75.913c0.05,0.671 -0.168,1.335 -0.654,1.816c-0.487,0.486 -1.119,0.746 -1.794,0.718l-11.37,-0c-0.681,0.017 -1.345,-0.217 -1.837,-0.703c-0.487,-0.486 -0.757,-1.151 -0.698,-1.837l0,-57.285l-18.804,41.63c-0.27,0.783 -0.756,1.481 -1.399,2.01c-0.719,0.379 -1.539,0.579 -2.361,0.54l-9.27,0c-0.795,0.05 -1.583,-0.168 -2.275,-0.54c-0.671,-0.486 -1.156,-1.211 -1.399,-2.01l-18.716,-41.63l0,57.285c-0.003,0.676 -0.27,1.33 -0.697,1.837c-0.487,0.433 -1.102,0.676 -1.751,0.703l-11.632,-0c-0.628,0.006 -1.226,-0.27 -1.659,-0.703c-0.487,-0.486 -0.757,-1.151 -0.698,-1.837l0,-75.913c-0.033,-0.676 0.216,-1.323 0.72,-1.794c0.486,-0.487 1.145,-0.708 1.815,-0.654l19.678,-0c0.788,-0.017 1.573,0.167 2.275,0.54c0.487,0.486 0.81,1.087 0.961,1.751l-0.002,0.006Z" style="fill:#101010;"/><path d="M1631.9,4923.15c-219.343,-0 -396.619,171.241 -396.619,389.097c0,216.369 177.276,384.812 396.619,384.812c220.83,-0 398.105,-168.18 398.105,-384.812c0,-217.768 -177.013,-389.01 -398.105,-389.01l0,-0.087Zm0,570.483c-101.101,0 -178.063,-81.772 -178.063,-182.873c0,-101.1 76.962,-184.097 178.063,-184.097c102.587,-0 179.55,83.259 179.55,184.36c-0,101.1 -76.963,182.96 -179.55,182.96l0,-0.35Z" style="fill:#101010;"/><path d="M2524.57,4624.3l-403.615,-0c-8.811,-0.168 -17.309,3.269 -23.532,9.507c-6.223,6.24 -9.632,14.748 -9.44,23.558l0,983.981c-0.635,9.107 2.565,18.066 8.827,24.71c6.262,6.643 15.016,10.368 24.145,10.274l403.615,0c322.98,0 547.395,-214.796 547.395,-527.281c-0,-314.409 -224.415,-524.749 -547.395,-524.749Zm9.533,844.23l-220.83,0l0,-636.951l220.83,0c178.762,0 301.99,133.722 301.99,317.033c-0,180.249 -123.228,319.918 -301.99,319.918Z" style="fill:#101010;"/><path d="M3875.35,4944.31l-151.738,-0c-17.391,1.372 -30.959,15.621 -31.485,33.058l-0,45.041c-34.546,-57.11 -112.645,-99.177 -209.897,-99.177c-189.258,0 -366.534,148.678 -366.534,386.124c0,236.135 175.702,387.523 365.047,387.523c97.602,0 177.276,-41.979 211.822,-99.089l-0,46.527c0.1,17.363 14.121,31.429 31.484,31.573l151.738,-0c8.431,0.216 16.575,-3.07 22.538,-9.035c5.963,-5.963 9.228,-14.107 9.034,-22.538l0,-666.949c0.27,-8.662 -2.993,-17.062 -9.023,-23.288c-6.029,-6.227 -14.319,-9.751 -22.986,-9.77Zm-352.978,550.98c-100.488,0 -175.963,-77.225 -175.963,-184.36c-0,-107.135 75.475,-184.272 175.963,-184.272c100.489,-0 175.965,77.05 175.965,184.185c-0,107.135 -75.389,184.36 -175.965,184.36l0,0.087Z" style="fill:#101010;"/><path d="M4727.1,4624.31l-151.738,-0c-8.58,-0.27 -16.904,2.939 -23.103,8.875c-6.2,5.937 -9.755,14.114 -9.869,22.696l0,363.56c-34.983,-54.136 -114.219,-96.203 -213.308,-96.203c-187.858,0 -362.073,148.678 -362.073,386.124c0,236.135 175.702,387.523 365.046,387.523c97.603,0 171.242,-41.979 211.822,-99.089l-0,46.527c0.05,17.383 14.102,31.476 31.485,31.573l151.738,-0c8.438,0.216 16.597,-3.038 22.565,-9.007c5.97,-5.969 9.226,-14.127 9.007,-22.566l-0,-988.266c0.27,-8.469 -2.967,-16.673 -8.941,-22.681c-5.975,-6.008 -14.161,-9.287 -22.631,-9.066Zm-352.978,872.822c-100.051,0 -174.914,-78.011 -174.914,-186.283c0,-108.272 75.126,-186.284 174.914,-186.284c99.789,-0 174.915,78.012 174.915,186.284c-0,108.272 -74.776,186.283 -174.915,186.283Z" style="fill:#101010;"/><path d="M5578.67,4624.31l-151.476,-0c-8.588,-0.27 -16.921,2.934 -23.134,8.87c-6.213,5.934 -9.788,14.111 -9.925,22.701l0,363.56c-34.545,-54.136 -114.219,-96.203 -213.308,-96.203c-187.858,0 -362.073,148.678 -362.073,386.124c0,236.135 175.789,387.523 365.047,387.523c97.689,0 171.241,-41.979 211.821,-99.089l0,46.527c0.101,17.397 14.175,31.477 31.572,31.573l151.476,-0c8.431,0.216 16.581,-3.038 22.536,-9.012c5.956,-5.972 9.191,-14.131 8.948,-22.561l0,-988.266c0.27,-8.46 -2.923,-16.666 -8.882,-22.677c-5.961,-6.01 -14.14,-9.292 -22.602,-9.07Zm-352.978,872.822c-100.138,0 -174.914,-78.011 -174.914,-186.283c0,-108.272 75.126,-186.284 174.914,-186.284c99.789,-0 174.915,78.012 174.915,186.284c0,108.272 -74.601,186.283 -174.652,186.283l-0.263,0Z" style="fill:#101010;"/></g><path d="M4684.66,825.087c-386.281,-241.347 -894.81,-183.846 -1348.36,101.138c-452.131,-284.984 -960.975,-342.485 -1346.78,-101.138c-610.298,381.397 -684.498,1363.64 -165.572,2194.02c382.5,612.189 980.668,970.9 1513.14,964.284c532.475,6.619 1130.64,-352.095 1513.14,-964.284c518.296,-830.377 444.727,-1812.62 -165.571,-2194.02Zm124.611,1470.29c-51.792,193.746 -132.519,378.569 -239.455,548.229c-68.303,109.593 -146.789,212.499 -234.416,307.355c98.303,-400.932 31.508,-892.132 -209.523,-1352.77c-7.785,-15.343 -21.705,-26.669 -38.309,-31.174c-16.604,-4.506 -34.339,-1.761 -48.809,7.545l-751.451,469.459c-13.843,8.635 -23.682,22.427 -27.346,38.327c-3.665,15.899 -0.858,32.603 7.811,46.429l110.276,176.283c8.607,13.832 22.369,23.668 38.243,27.334c15.873,3.669 32.554,0.876 46.354,-7.797l487.105,-304.362c15.753,47.261 31.507,94.522 43.322,141.783c45.946,167.99 63.569,342.464 52.145,516.248c-7.785,103.116 -27.072,198.575 -56.981,284.708c-59.058,170.077 -159.529,303.793 -294.641,388.291c-104.984,64.187 -225.277,99.007 -348.314,100.823l-15.597,0c-123.043,-1.782 -243.346,-36.601 -348.314,-100.823c-203.695,-127.29 -328.622,-366.274 -351.78,-672.999c-11.466,-173.984 6.103,-348.662 51.987,-516.878c105.579,-389.175 323.824,-738.466 627.312,-1003.98c130.876,-114.878 279.944,-207.194 441.104,-273.17c285.772,-113.742 555.317,-106.179 759.012,21.11c203.696,127.29 328.465,366.116 351.623,672.998c11.686,174.001 -5.671,348.734 -51.357,517.036l-0.001,-0.004Zm-2704.75,548.386c-107,-169.625 -187.732,-354.458 -239.455,-548.228c-45.955,-168.202 -63.525,-342.893 -51.988,-516.878c23.158,-306.883 148.085,-545.866 351.623,-672.998c203.537,-127.133 472.61,-134.852 759.17,-21.11c43.008,17.171 85.543,37.021 127.762,58.918c-159.24,145.199 -297.705,311.653 -411.486,494.667c-315.074,504.118 -411.171,1065.11 -301.211,1512.35c-87.678,-94.584 -166.169,-197.287 -234.415,-306.725Z" style="fill:#1ad4d4;"/></g></svg>