<?xml version="1.0" encoding="UTF-8" standalone="no"?><!DOCTYPE svg PUBLIC "-//W3C//DTD SVG 1.1//EN" "http://www.w3.org/Graphics/SVG/1.1/DTD/svg11.dtd"><svg width="100%" height="100%" viewBox="0 0 6671 6667" version="1.1" xmlns="http://www.w3.org/2000/svg" xmlns:xlink="http://www.w3.org/1999/xlink" xml:space="preserve" xmlns:serif="http://www.serif.com/" style="fill-rule:evenodd;clip-rule:evenodd;stroke-linejoin:round;stroke-miterlimit:2;"><rect id="hostinger-vertical" x="2.445" y="0" width="6666.67" height="6666.67" style="fill:none;"/><g><g><path id="Fill-1" d="M523.466,5306.34l163.317,-0l-0,722.948l-163.317,0l0,-307.035l-274.371,-0l-0,307.035l-163.317,0l-0,-722.948l163.317,-0l-0,276.549l274.371,0l0,-276.549Z" style="fill:#6747c7;fill-rule:nonzero;"/><path id="Fill-2" d="M1070.03,5661.28c-0,34.841 4.355,67.505 13.065,95.813c8.71,28.308 21.775,52.261 37.018,74.037c15.243,19.598 37.019,37.018 58.794,47.906c23.953,10.888 50.084,17.42 80.57,17.42c30.486,0 56.616,-6.532 80.569,-17.42c23.953,-10.888 43.551,-26.131 60.972,-47.906c15.243,-19.598 28.308,-45.729 37.018,-74.037c8.71,-28.308 13.066,-60.972 13.066,-95.813c-0,-34.841 -4.356,-67.504 -13.066,-97.99c-8.71,-28.308 -21.775,-54.438 -37.018,-74.036c-15.243,-19.598 -37.019,-37.019 -60.972,-47.907c-23.953,-10.887 -50.083,-17.42 -80.569,-17.42c-30.486,-0 -56.617,6.533 -80.57,17.42c-23.953,10.888 -43.551,28.309 -58.794,47.907c-15.243,19.598 -28.308,45.728 -37.018,74.036c-8.71,32.664 -13.065,63.149 -13.065,97.99Zm550.921,0c-0,63.149 -8.71,117.588 -28.308,163.317c-17.421,47.906 -43.551,87.102 -76.215,117.588c-32.663,32.663 -69.682,56.616 -113.233,71.859c-43.551,15.243 -91.457,23.953 -141.541,23.953c-50.083,0 -95.812,-8.71 -139.363,-23.953c-43.551,-15.243 -82.747,-39.196 -115.411,-71.859c-32.663,-32.663 -58.794,-71.859 -76.214,-117.588c-19.598,-47.906 -28.308,-102.345 -28.308,-163.317c-0,-63.149 8.71,-117.588 28.308,-163.316c19.598,-47.906 45.729,-87.102 78.392,-119.766c32.663,-32.663 71.859,-56.616 115.41,-71.859c43.551,-15.243 89.28,-23.953 137.186,-23.953c50.084,-0 95.813,8.71 139.364,23.953c43.551,15.243 82.747,39.196 115.41,71.859c32.664,32.664 58.794,71.86 76.215,119.766c19.598,47.906 28.308,102.345 28.308,163.316Z" style="fill:#6747c7;fill-rule:nonzero;"/><path id="Fill-4" d="M2030.33,5900.82c23.953,0 41.374,-2.177 56.616,-6.532c15.243,-4.355 26.131,-8.711 34.841,-15.243c8.711,-6.533 15.243,-15.243 19.598,-23.953c4.355,-8.711 4.355,-19.598 4.355,-30.486c0,-23.953 -10.887,-43.551 -32.663,-58.794c-21.775,-15.243 -60.971,-32.663 -115.41,-50.084c-23.953,-8.71 -47.906,-17.42 -71.86,-28.308c-23.953,-10.888 -45.728,-23.953 -63.149,-41.374c-19.598,-17.42 -34.841,-37.018 -45.728,-58.794c-10.888,-23.953 -17.421,-52.261 -17.421,-84.924c0,-32.663 6.533,-63.149 19.598,-91.457c13.066,-26.131 30.486,-50.084 52.262,-69.682c23.953,-19.598 50.083,-32.663 82.747,-43.551c32.663,-10.888 69.681,-15.243 111.055,-15.243c47.906,-0 91.457,4.355 126.298,15.243c34.841,10.888 65.327,21.775 87.102,34.841l-47.906,128.475c-19.598,-10.887 -43.551,-19.598 -67.504,-28.308c-23.953,-8.71 -54.439,-13.065 -89.28,-13.065c-39.196,-0 -67.504,6.532 -82.747,15.243c-17.42,10.887 -26.131,28.308 -26.131,50.083c0,13.066 2.178,23.954 8.711,32.664c6.532,8.71 15.243,17.42 26.13,23.953c10.888,6.533 23.953,13.065 39.196,19.598c15.243,6.533 30.486,13.065 50.084,17.42c37.018,13.066 69.682,28.308 97.99,41.374c28.308,13.065 50.084,30.486 69.682,47.906c17.42,17.42 32.663,39.196 41.373,63.149c8.71,23.953 13.066,54.439 13.066,89.28c-0,67.504 -23.954,119.765 -71.86,156.784c-47.906,37.018 -117.588,56.616 -213.4,56.616c-32.663,0 -60.972,-2.177 -87.102,-6.533c-26.131,-4.355 -47.906,-8.71 -67.504,-15.242c-19.598,-6.533 -37.019,-10.888 -50.084,-17.421c-15.243,-6.532 -26.131,-13.065 -34.841,-17.42l45.729,-130.654c21.775,10.888 47.906,21.776 80.569,32.664c32.663,17.42 71.859,21.775 117.588,21.775" style="fill:#6747c7;fill-rule:nonzero;"/><path id="Fill-6" d="M3029.83,5299.81l-0,139.364l-217.756,-0l0,585.762l-163.316,-0l-0,-585.762l-217.756,-0l0,-139.364l598.828,0Z" style="fill:#6747c7;fill-rule:nonzero;"/><rect id="Fill-8" x="3210.57" y="5299.81" width="161.139" height="725.126" style="fill:#6747c7;fill-rule:nonzero;"/><path id="Fill-10" d="M4099.01,6024.94c-45.729,-82.747 -95.813,-165.494 -150.251,-246.064c-54.439,-80.569 -113.233,-156.784 -174.205,-228.643l0,476.884l-161.139,0l0,-727.303l132.831,0c23.953,23.953 47.906,52.262 76.214,84.925c28.309,32.663 56.617,69.682 84.925,106.7c28.308,37.019 56.616,78.392 84.925,117.588c28.308,41.374 54.438,80.57 80.569,117.588l0,-428.978l161.139,-0l0,727.303l-135.008,-0" style="fill:#6747c7;fill-rule:nonzero;"/><path id="Fill-11" d="M4830.67,5426.11c-76.214,0 -130.653,21.776 -163.317,63.15c-32.663,41.373 -50.083,100.167 -50.083,174.204c-0,34.841 4.355,67.504 13.065,97.99c8.71,28.308 21.776,54.439 37.018,74.037c17.421,21.775 37.019,37.018 63.15,47.906c23.953,10.888 54.438,17.42 87.102,17.42l45.728,0c13.066,0 23.953,-2.177 34.841,-4.355l0,-254.774l163.317,0l-0,359.297c-19.598,8.71 -50.084,15.243 -93.635,23.953c-43.551,8.71 -95.812,13.065 -158.961,13.065c-54.439,0 -102.346,-8.71 -148.074,-26.13c-43.551,-17.421 -82.747,-41.374 -113.233,-74.037c-30.486,-32.664 -54.439,-71.86 -71.859,-117.588c-17.421,-45.729 -26.131,-100.168 -26.131,-161.139c0,-60.972 8.71,-115.411 28.308,-161.139c19.598,-45.729 43.551,-87.102 76.215,-119.766c32.663,-32.663 71.859,-56.616 115.41,-74.037c43.551,-17.42 91.457,-26.13 141.541,-26.13c34.841,-0 65.327,2.177 91.457,6.532c28.309,4.356 50.084,8.711 71.86,15.243c19.598,6.533 37.018,13.066 47.906,17.421c13.065,6.532 21.775,10.888 28.308,15.243l-47.906,130.653c-21.776,-10.888 -47.906,-21.776 -76.215,-30.486c-30.485,-2.177 -63.149,-6.533 -95.812,-6.533" style="fill:#6747c7;fill-rule:nonzero;"/><path id="Fill-12" d="M5285.78,6024.94l-0,-725.126l485.595,0l-0,137.186l-324.456,0l-0,141.541l289.615,0l-0,135.009l-289.615,-0l-0,174.204l348.409,0l-0,137.186l-509.548,-0Z" style="fill:#6747c7;fill-rule:nonzero;"/><path id="Fill-13" d="M6213.42,5430.46l-32.663,-0c-8.71,-0 -17.421,2.177 -26.131,2.177l0,195.98l45.729,0c60.971,0 104.522,-8.71 130.653,-23.953c26.131,-15.243 39.196,-41.374 39.196,-78.392c0,-34.841 -13.065,-60.972 -39.196,-76.214c-26.131,-10.888 -65.327,-19.598 -117.588,-19.598m-8.71,-139.364c108.878,0 191.625,19.598 248.241,58.794c56.617,39.196 87.102,97.99 87.102,180.737c0,50.084 -10.887,91.457 -34.841,124.121c-23.953,32.663 -56.616,56.616 -100.167,74.037c15.243,17.42 30.486,39.196 45.729,63.149c15.242,23.953 32.663,47.906 47.906,74.036c15.243,26.131 30.486,52.262 45.728,80.57c15.243,28.308 28.309,54.439 41.374,80.569l-180.737,0c-13.065,-23.953 -26.131,-47.906 -39.196,-71.859c-13.065,-23.953 -28.308,-47.906 -41.374,-71.859c-15.242,-23.953 -28.308,-45.729 -41.373,-65.327c-13.065,-19.598 -28.308,-39.196 -41.374,-56.616l-80.569,-0l-0,265.661l-163.317,0l0,-716.415c34.841,-6.533 71.86,-10.888 108.878,-15.243c32.663,-2.177 67.504,-4.355 97.99,-4.355" style="fill:#6747c7;fill-rule:nonzero;"/></g><path id="Fill-15" d="M1617.88,2515.09l0,-1886.42l945.727,508.077l0,850.148l1252.59,0l960.818,528.199l-3159.13,-0Zm2459.9,-684.143l0,-1202.28l970.879,492.986l0,1272.71l-970.879,-563.411Zm0,2298.92l0,-840.087l-1262.65,-0c0,5.03 -975.909,-538.26 -975.909,-538.26l3214.47,15.092l-0,1886.42l-975.91,-523.168Zm-2459.9,-0l0,-1232.46l945.727,553.35l0,1172.1l-945.727,-492.985Z" style="fill:#6747c7;fill-rule:nonzero;"/></g></svg>