<?xml version="1.0" encoding="UTF-8" standalone="no"?><!DOCTYPE svg PUBLIC "-//W3C//DTD SVG 1.1//EN" "http://www.w3.org/Graphics/SVG/1.1/DTD/svg11.dtd"><svg width="100%" height="100%" viewBox="0 0 6671 6667" version="1.1" xmlns="http://www.w3.org/2000/svg" xmlns:xlink="http://www.w3.org/1999/xlink" xml:space="preserve" xmlns:serif="http://www.serif.com/" style="fill-rule:evenodd;clip-rule:evenodd;stroke-linejoin:round;stroke-miterlimit:2;"><rect id="inmotion-vertical" x="3.835" y="0" width="6666.67" height="6666.67" style="fill:none;"/><g><path id="Path" d="M4067.5,3407.36l-53.335,220.107l178.813,0l-44.466,185.379l-179.621,0l-26.041,100.427c-5.697,25.455 -10.647,44.022 -13.516,58.628c-5.05,30.021 -19.556,65.962 31.476,91.376c25.334,12.627 98.003,10.546 153.499,3.778l-96.508,189.177l-82.143,3.273l-75.74,0c-79.457,0 -135.66,-18.465 -168.59,-50.527c-25.496,-24.566 -38.204,-63.436 -38.204,-116.568c0,-29.84 5.475,-70.689 16.445,-122.469l40.163,-157.095l-103.195,0l43.618,-185.379l105.7,0l33.253,-143.216l278.392,-76.891Z" style="fill-rule:nonzero;"/><path id="Shape" d="M3185.34,3611.2c70.688,0 118.205,5.031 162.307,15.172c44.163,10.061 79.578,26.102 106.387,48.022c43.92,36.486 75.74,90.851 75.74,168.106c-0,64.547 -15.395,127.943 -43.961,189.035c-46.406,99.114 -116.064,154.085 -199.077,193.581c-64.971,30.749 -188.126,52.87 -272.633,49.719c-84.528,-3.091 -120.994,-7.798 -157.54,-16.465c-36.527,-8.687 -75.174,-26.223 -102.326,-46.426c-47.86,-34.647 -79.295,-83.861 -79.295,-160.691c-0,-69.376 9.515,-123.236 38.485,-191.298c26.769,-62.325 75.881,-120.953 122.368,-156.086c42.183,-32.041 90.669,-55.011 145.559,-68.83c54.891,-13.798 117.923,-23.374 203.986,-23.839Zm-43.638,175.015c-59.699,0 -112.771,28.183 -144.368,72.952c-26.384,37.334 -45.294,85.881 -45.294,134.185c0,69.376 37.294,104.084 111.963,104.084c58.789,-0 111.68,-29.031 143.741,-73.82c26.324,-37.294 46.103,-88.144 46.103,-135.964c0.02,-68.951 -37.921,-100.568 -112.145,-101.437Z" style="fill-rule:nonzero;"/><g id="Path1" serif:id="Path"><path d="M500.776,3627.81l-152.833,628.28l-260.775,-0l152.813,-628.28l260.795,-0Z" style="fill-rule:nonzero;"/><path d="M456.714,3332.2c35.516,1.738 60.284,12.991 78.123,33.921c17.779,20.99 19.9,48.607 18.728,74.406c-6.344,45.294 -22.405,72.345 -58.911,100.245c-40.991,28.041 -73.78,38.668 -129.397,33.556c-35.395,-3.232 -64.891,-18.667 -79.598,-36.647c-14.728,-18.001 -21.698,-45.011 -18.486,-73.598c3.253,-28.567 18.122,-63.093 54.224,-92.871c36.062,-29.779 94.427,-41.012 135.317,-39.012Z" style="fill-rule:nonzero;"/></g><path id="Path2" serif:id="Path" d="M862.745,3627.4l-11.96,54.648c54.345,-34.527 91.862,-49.961 130.61,-59.901c42.385,-10.869 75.639,-13.374 128.751,-11.677c64.083,2.061 108.023,15.879 149.459,43.294c36.466,27.213 59.113,60.466 62.87,111.963c1.172,35.738 -11.737,89.558 -11.737,89.558l-96.427,400.799l-256.714,-0l76.507,-315.362c7.475,-36.001 12.061,-54.386 13.677,-70.467c5.131,-50.668 -34.466,-64.062 -88.447,-64.062c-46.102,-0 -101.882,15.434 -129.175,44.162c-22.809,24.041 -35.618,60.063 -52.689,128.085l-66.749,277.644l-257.462,-0l152.025,-628.684l257.461,-0Z" style="fill-rule:nonzero;"/><path id="Path3" serif:id="Path" d="M3372.61,4397.81l-74.306,349.848c30.951,-26.566 58.548,-45.031 82.77,-55.436c24.244,-10.384 51.416,-15.556 81.659,-15.556c43.355,0 77.558,10.97 102.69,33.032c25.112,22.02 37.718,52.142 37.718,90.366c0,16.788 -3.313,40.263 -9.859,70.487l-65.577,310.251l-82.427,-0l65.537,-308.09c4.001,-18.182 6.021,-33.455 6.021,-45.86c-0,-24.768 -7.738,-44.183 -23.213,-58.203c-15.475,-13.981 -36.87,-21.011 -64.204,-21.011c-21.132,-0 -42.425,4.384 -63.901,13.111c-21.495,8.748 -39.516,20.405 -54.062,34.931c-19.677,19.677 -33.152,46.062 -40.425,79.214l-65.012,305.887l-81.921,0l166.59,-782.991l81.922,-0l-0,0.02Z" style="fill-rule:nonzero;"/><path id="Shape1" serif:id="Shape" d="M3963.76,4677.76c58.992,0 104.892,16.081 137.661,48.345c32.748,32.223 49.153,77.477 49.153,135.721c-0,38.991 -6.667,78.083 -19.94,117.438c-13.293,39.314 -31.597,73.941 -54.911,103.801c-56.789,72.446 -130.185,108.689 -220.107,108.689c-58.992,0 -104.973,-16.121 -137.923,-48.344c-32.971,-32.223 -49.416,-77.295 -49.416,-135.216c0,-39.274 6.627,-78.609 19.92,-117.963c13.293,-39.314 31.597,-73.921 54.891,-103.761c55.698,-71.032 129.236,-107.275 220.672,-108.71Zm-15.313,70.992c-65.174,0 -116.306,34.93 -153.459,104.831c-24.041,44.81 -36.062,91.397 -36.062,139.863c0,41.496 10.364,73.517 31.133,96.124c19.313,20.768 45.88,31.132 79.719,31.132c64.83,-0 116.003,-34.93 153.519,-104.872c24.021,-44.789 36.042,-91.214 36.042,-139.276c-0,-40.81 -9.576,-72.184 -28.668,-94.245c-19.111,-21.981 -46.546,-33.213 -82.224,-33.557Z" style="fill-rule:nonzero;"/><path id="Path4" serif:id="Path" d="M4587.13,4764.04l-81.355,45.881c-1.112,-22.547 -7.657,-39.032 -19.718,-49.456c-12,-10.364 -30.385,-15.577 -55.153,-15.577c-27.658,0 -51.052,7.879 -70.184,23.536c-19.132,15.617 -28.667,34.931 -28.667,57.881c-0,14.93 6.363,26.667 19.131,35.213c12.728,8.586 37.698,17.738 74.79,27.576c43.335,11.314 73.194,25.052 89.619,41.274c16.384,16.203 24.566,40.102 24.566,71.821c0,44.768 -19.293,85.941 -57.88,123.437c-45.153,44.022 -102.892,66.083 -173.177,66.083c-46.223,0 -81.436,-10.404 -105.679,-31.132c-24.163,-20.748 -40.486,-54.608 -48.85,-101.599l85.194,-33.294c3.616,65.537 34.405,98.286 92.306,98.286c38.243,-0 69.194,-12.546 92.851,-37.658c18.566,-19.677 27.859,-41.678 27.859,-66.083c0,-14.949 -6.263,-26.606 -18.829,-34.99c-12.566,-8.344 -37.778,-18.183 -75.699,-29.496c-30.91,-8.748 -52.93,-16.809 -66.062,-24.263c-13.112,-7.475 -23.88,-17.94 -32.243,-31.416c-10.223,-16 -15.274,-34.263 -15.274,-54.627c0,-18.95 5.011,-38.87 14.991,-59.8c10.04,-20.93 23.394,-39.415 40.142,-55.456c36.769,-34.93 84.487,-52.426 143.095,-52.426c39.698,0 70.75,6.728 93.134,20.203c22.385,13.475 39.436,35.476 51.092,66.082Z" style="fill-rule:nonzero;"/><path id="Path5" serif:id="Path" d="M4836.88,4529.19l-33.86,159.459l137.64,0l-14.768,71.053l-138.165,-0l-50.284,236.512c-6.91,32.021 -10.364,55.153 -10.364,69.375c-0,37.133 24.021,55.679 72.062,55.679c15.678,-0 35.537,-3.96 59.537,-12.001l-21.818,68.79c-32.042,9.132 -58.447,13.677 -79.215,13.677c-37.496,0 -66.022,-8.384 -85.457,-25.132c-19.455,-16.728 -29.213,-41.132 -29.213,-73.194c0,-25.455 4.364,-58.607 13.092,-99.376l49.698,-234.33l-79.74,-0l15.294,-71.053l79.76,0l26.748,-125.579l89.053,-33.88Z" style="fill-rule:nonzero;"/><path id="Shape2" serif:id="Shape" d="M5094.84,4688.64l-104.852,492.156l-81.942,-0l104.852,-492.156l81.942,0Zm7.636,-250.673c13.132,-0 23.859,4.161 32.223,12.546c8.384,8.424 12.587,19.111 12.587,32.263c-0,17.475 -7.031,33.213 -21.031,47.234c-14.041,13.98 -29.941,21.051 -47.78,21.051c-12.747,-0 -23.333,-4.202 -31.657,-12.546c-8.404,-8.424 -12.606,-19.132 -12.606,-32.264c-0,-17.818 6.929,-33.677 20.768,-47.556c13.798,-13.859 29.657,-20.728 47.496,-20.728Z" style="fill-rule:nonzero;"/><path id="Path6" serif:id="Path" d="M5308,4688.64l-12.546,59.012c30.951,-26.566 58.507,-45.031 82.75,-55.436c24.203,-10.384 51.436,-15.556 81.659,-15.556c43.334,0 77.537,10.97 102.69,33.032c25.111,22.02 37.677,52.142 37.677,90.366c0,16.788 -3.293,40.263 -9.818,70.487l-65.537,310.251l-82.487,-0l65.537,-308.09c4.02,-18.182 6,-33.455 6,-45.86c0,-24.768 -7.717,-44.183 -23.172,-58.203c-15.516,-13.981 -36.87,-21.011 -64.224,-21.011c-21.092,-0 -42.406,4.384 -63.881,13.111c-21.475,8.728 -39.516,20.405 -54.102,34.931c-19.637,19.677 -33.112,46.062 -40.385,79.214l-65.012,305.887l-81.942,0l104.872,-492.155l81.921,0l0,0.02Z" style="fill-rule:nonzero;"/><path id="Shape3" serif:id="Shape" d="M6179.34,4688.64l-104.306,492.156c-14.223,66.244 -38.991,119.801 -74.305,160.59c-26.567,30.566 -58.628,54.365 -96.145,71.517c-36.405,16.728 -72.648,25.132 -108.689,25.132c-48.79,0 -90.852,-13.839 -126.166,-41.516c-14.546,-11.273 -25.92,-23.859 -34.122,-37.678c-8.182,-13.839 -16.142,-33.9 -23.778,-60.103l80.305,-52.425c8.748,80.85 47.88,121.256 117.438,121.256c52.466,-0 97.235,-24.042 134.387,-72.104c22.526,-28.748 39.86,-71.921 51.86,-129.437l9.839,-45.335c-54.628,47.678 -110.872,71.557 -168.772,71.557c-41.88,0 -79.013,-13.273 -111.438,-39.9c-40.041,-33.455 -60.103,-81.901 -60.103,-145.276c0,-38.951 6.647,-78.003 19.961,-117.175c13.273,-39.133 31.576,-73.659 54.87,-103.478c26.223,-33.86 58.284,-60.668 96.164,-80.285c37.86,-19.294 75.699,-28.971 113.579,-28.971c28.768,0 53.981,5.758 75.659,17.233c21.657,11.455 41.415,29.597 59.274,54.325l12.546,-60.123l81.942,0l-0,0.04Zm-233.765,59.537c-65.193,0 -116.326,34.971 -153.479,104.872c-24.041,44.789 -36.061,91.599 -36.061,140.388c-0,41.839 10.182,74.103 30.607,96.649c19.293,20.748 46.041,31.132 80.285,31.132c64.83,0 115.983,-35.112 153.479,-105.417c24.021,-44.425 36.061,-91.033 36.061,-139.822c0,-40.769 -9.454,-72.103 -28.404,-93.922c-18.91,-21.819 -46.446,-33.112 -82.488,-33.88Z" style="fill-rule:nonzero;"/><path id="Path7" serif:id="Path" d="M1473.98,3627.52l257.461,-0l-9.858,44.85c50.87,-29.213 70.102,-39.537 102.406,-48.123c53.073,-14.122 92.912,-15.96 131.863,-14.526c50.466,1.798 78.366,9.92 112.387,25.072c25.071,14.687 45.314,27.96 68.971,61.739c62.669,-41.173 105.276,-60.365 147.156,-72.386c44.163,-12.202 85.881,-14.687 133.761,-14.687c66.729,-0 119.822,15.293 154.287,42.506c34.466,27.233 63.336,66.345 63.336,119.034c1.454,26.829 -10.445,75.739 -10.445,75.739l-98.548,409.102l-257.462,0l78.568,-331.585c-0,0 8.667,-38.506 11.091,-55.981c5.778,-37.415 -22.122,-60.002 -73.558,-61.719c-48.648,-0.848 -90.831,8.768 -119.983,44.082c-19.576,22.223 -26.142,43.84 -43.718,103.538l-71.598,302.049l-256.977,0c-0,0 74.507,-308.554 79.376,-332.999c2.465,-12.323 8.343,-36.001 10.808,-54.648c6.223,-39.314 -24.93,-61.416 -70.628,-63.234c-42.971,-0.465 -79.477,15.475 -104.932,37.88c-36.345,31.981 -46.749,83.477 -62.527,138.63l-66.083,274.371l-256.633,0l151.479,-628.704Z" style="fill-rule:nonzero;"/><path id="Path8" serif:id="Path" d="M5872.56,3627.83l-11.96,54.628c54.305,-34.506 91.841,-49.961 130.59,-59.901c42.425,-10.889 75.638,-13.394 128.751,-11.657c64.062,2.02 108.023,15.839 149.499,43.294c36.405,27.213 59.072,60.426 62.83,111.943c1.152,35.738 -11.758,89.558 -11.758,89.558l-96.406,400.819l-256.715,0l76.528,-315.362c7.434,-36.021 12.04,-54.386 13.677,-70.507c5.111,-50.668 -34.506,-64.022 -88.488,-64.022c-46.082,-0 -101.861,15.394 -129.155,44.142c-22.849,24.041 -35.597,60.083 -52.668,128.105l-66.769,277.664l-257.462,0l152.004,-628.664l257.502,0l0,-0.04Z" style="fill-rule:nonzero;"/><g id="Path9" serif:id="Path"><path d="M4582.59,3627.61l-152.833,628.28l-260.754,-0l152.792,-628.28l260.795,-0Z" style="fill-rule:nonzero;"/><path d="M4538.55,3332c35.516,1.738 60.285,12.991 78.083,33.921c17.799,20.97 19.88,48.627 18.748,74.385c-6.323,45.295 -22.404,72.326 -58.911,100.246c-40.97,28.021 -73.759,38.688 -129.357,33.576c-35.435,-3.272 -64.911,-18.687 -79.618,-36.667c-14.728,-18.001 -21.698,-45.012 -18.506,-73.578c3.273,-28.567 18.142,-63.093 54.244,-92.892c36.021,-29.778 94.407,-40.991 135.317,-38.991Z" style="fill-rule:nonzero;"/></g><path id="Shape4" serif:id="Shape" d="M5104.94,3609.81c70.648,0 118.185,5.051 162.287,15.152c44.102,10.101 79.598,26.122 106.367,48.082c43.92,36.446 75.739,90.831 75.739,168.066c0,64.567 -15.354,127.983 -43.96,189.035c-46.406,99.134 -116.064,154.126 -199.077,193.622c-64.971,30.728 -188.106,52.85 -272.613,49.698c-84.508,-3.091 -120.994,-7.818 -157.52,-16.485c-36.526,-8.667 -75.154,-26.203 -102.387,-46.385c-47.86,-34.648 -79.234,-83.841 -79.234,-160.692c-0,-69.355 9.475,-123.256 38.445,-191.318c26.789,-62.325 75.922,-120.953 122.428,-156.065c42.122,-32.082 90.629,-54.992 145.519,-68.851c54.87,-13.818 117.943,-23.394 204.006,-23.859Zm-43.638,175.035c-59.698,0 -112.771,28.143 -144.388,72.912c-26.344,37.334 -45.274,85.881 -45.274,134.185c0,69.376 37.315,104.043 111.943,104.043c58.85,0 111.68,-28.95 143.762,-73.779c26.344,-37.294 46.082,-88.144 46.082,-135.964c-0.021,-68.931 -37.921,-100.548 -112.125,-101.397Z" style="fill-rule:nonzero;"/><path id="Shape5" serif:id="Shape" d="M6476.62,4058.95c20.182,0 39.193,5.536 57.092,16.627c17.96,11.051 31.678,25.98 41.274,44.708c8.081,16.122 12.182,33.193 12.182,51.254c0,21.051 -5.475,40.607 -16.425,58.628c-10.97,17.94 -25.738,31.718 -44.425,41.415c-16.122,8.243 -33.173,12.324 -51.072,12.324c-20.95,-0 -40.426,-5.455 -58.507,-16.425c-18.021,-11.091 -31.859,-26.041 -41.557,-44.91c-8.222,-16.102 -12.323,-33.153 -12.323,-51.032c-0,-21.293 5.515,-41.031 16.566,-59.153c10.889,-17.778 25.879,-31.597 45.052,-41.375c15.818,-8.041 33.253,-12.061 52.143,-12.061Zm-0.223,19.314c-25.839,-0 -47.637,8.949 -65.476,26.889c-8.627,8.748 -15.334,18.91 -20.041,30.466c-4.627,11.536 -6.97,23.516 -6.97,35.94c-0,25.577 8.95,47.517 27.011,65.719c17.839,18.142 39.193,27.193 64.204,27.193c25.031,-0 46.526,-9.111 64.365,-27.314c17.778,-18.142 26.667,-40.062 26.667,-65.8c0,-17.475 -4.484,-33.738 -13.454,-48.829c-8.587,-14.667 -20.668,-26.042 -36.163,-34.143c-12.162,-6.343 -25.556,-9.697 -40.143,-10.121Zm-43.051,156.186l-0,-126.165l39.092,-0c13.495,-0 23.152,1.313 28.95,3.959c5.535,2.647 9.96,6.647 13.152,12.041c3.212,5.374 4.828,11.455 4.828,18.344c0,7.798 -1.879,14.445 -5.677,19.981c-3.838,5.495 -9.919,10.505 -18.323,14.929l33.192,56.911l-29.233,-0l-29.394,-52.527l-10.607,0l0,52.527l-25.98,-0Zm25.94,-72.426l8.808,-0c7.536,0.525 13.374,-0.869 17.617,-4.101c4.222,-3.294 6.283,-8.021 6.283,-14.243c-0,-7.576 -3.192,-12.263 -9.617,-14.041c-1.899,-0.546 -7.131,-0.828 -15.636,-0.828l-7.435,-0l0,33.213l-0.02,-0Z" style="fill:#231f20;fill-rule:nonzero;"/></g><g><path id="Path10" serif:id="Path" d="M1195.88,1660.46l4898.48,-2.065l-122.309,503.289l-4776.17,-501.224Z" style="fill:#c32227;fill-rule:nonzero;"/><path id="Path11" serif:id="Path" d="M455.911,1729.72l5475,600.986l-107.162,439.883l-5367.84,-1040.87Z" style="fill:#c32227;fill-rule:nonzero;"/></g></svg>