<?xml version="1.0" encoding="UTF-8" standalone="no"?><!DOCTYPE svg PUBLIC "-//W3C//DTD SVG 1.1//EN" "http://www.w3.org/Graphics/SVG/1.1/DTD/svg11.dtd"><svg width="100%" height="100%" viewBox="0 0 6667 6667" version="1.1" xmlns="http://www.w3.org/2000/svg" xmlns:xlink="http://www.w3.org/1999/xlink" xml:space="preserve" xmlns:serif="http://www.serif.com/" style="fill-rule:evenodd;clip-rule:evenodd;stroke-linejoin:round;stroke-miterlimit:2;"><rect id="namecheap-vertical" x="0" y="0" width="6666.67" height="6666.67" style="fill:none;"/><g><path d="M5429.54,1173.94c-175.137,0.016 -337.053,95.33 -422.063,248.452l-9.815,20.245l-376.053,745.971l-478.501,942.893l313.479,617.757l17.177,33.741c48.328,85.482 121.217,154.523 209.191,198.148c87.867,-43.78 160.715,-112.783 209.191,-198.148l17.177,-33.741l939.213,-1853.27l22.698,-44.783c26.48,-60.766 40.148,-126.344 40.148,-192.628c-0,-264.157 -217.072,-481.659 -481.228,-482.182l-0.614,-2.453Z" style="fill:#ff5100;fill-rule:nonzero;"/><path d="M2526.63,2071.44l-312.866,-613.463l-17.177,-33.74c-47.928,-85.424 -120.675,-154.321 -208.578,-197.536c-87.748,43.148 -160.46,111.797 -208.577,196.922l-17.79,34.354l-940.44,1851.43l-22.698,44.169c-27.624,61.862 -41.903,128.857 -41.903,196.607c0,264.517 217.665,482.182 482.182,482.182c175.43,-0 337.546,-95.739 422.251,-249.364l10.428,-19.631l378.507,-745.971l477.888,-942.28l-1.227,-3.681Z" style="fill:#ff5100;fill-rule:nonzero;"/><path d="M5428.31,1173.94c-174.953,0.108 -336.643,95.427 -421.449,248.452l-10.429,20.245l-378.507,745.971l-479.114,942.893l314.093,617.757l17.177,33.741c48.145,85.623 121.085,154.712 209.191,198.148c88.106,-43.436 161.045,-112.525 209.191,-198.148l17.79,-33.741l942.28,-1853.27l22.084,-44.783c26.48,-60.766 40.149,-126.344 40.149,-192.628c-0,-264.157 -217.073,-481.659 -481.229,-482.182l-1.227,-2.453Z" style="fill:url(#_Linear1);fill-rule:nonzero;"/><path d="M1238.97,4031.45c174.313,0.512 335.845,-93.538 421.449,-245.385l10.429,-20.244l379.12,-745.972l478.502,-942.893l-313.48,-620.824l-17.177,-33.741c-48.49,-85.572 -121.603,-154.623 -209.805,-198.148c-87.974,43.625 -160.863,112.666 -209.19,198.148l-17.177,33.741l-943.507,1853.27l-22.698,44.783c-26.48,60.765 -40.148,126.344 -40.148,192.628c-0,264.157 217.072,481.659 481.228,482.181l2.454,2.454Z" style="fill:url(#_Linear2);fill-rule:nonzero;"/><path d="M2526.63,2071.44l-312.866,-613.463l-17.177,-33.74c-48.146,-85.624 -121.085,-154.713 -209.191,-198.149c29.299,-14.35 59.908,-25.854 91.406,-34.354c40.106,-10.163 81.319,-15.314 122.693,-15.337l655.178,0c173.895,0.481 334.767,94.284 420.836,245.386l17.177,33.74l847.193,1678.44l312.253,613.463l17.177,33.74c48.685,86.528 122.501,156.278 211.644,199.989c-66.351,32.256 -139.096,49.237 -212.871,49.691l-658.86,-0c-173.71,-0.573 -334.356,-94.381 -420.222,-245.385l-17.791,-33.741l-846.579,-1680.28Z" style="fill:#ff8c44;fill-rule:nonzero;"/></g><g><path d="M416.838,5008.11c-0.114,-1.02 -0.171,-2.045 -0.171,-3.07c-0,-15.105 12.429,-27.534 27.533,-27.534c1.026,-0 2.051,0.057 3.07,0.172l21.737,-0c0.672,-0.05 1.344,-0.075 2.017,-0.075c14.906,-0 27.172,12.265 27.172,27.171c-0,1.115 -0.069,2.229 -0.206,3.336l0,70.283c-0.014,14.738 -1.593,29.432 -4.709,43.837l2.536,-0c43.421,-96.838 140.228,-159.335 246.354,-159.044c151.798,0 205.054,86.224 205.054,236.573l-0,358.3c0.114,1.02 0.171,2.044 0.171,3.07c0,15.105 -12.429,27.534 -27.533,27.534c-1.026,-0 -2.051,-0.057 -3.07,-0.172l-22.824,0c-0.931,0.098 -1.867,0.147 -2.803,0.147c-14.707,0 -26.809,-12.102 -26.809,-26.809c0,-1.261 0.089,-2.521 0.266,-3.77l0,-336.201c0,-96.006 -15.578,-181.143 -133.321,-181.143c-130.06,0 -231.863,106.875 -231.863,249.253l0,268.091c0.178,1.249 0.267,2.509 0.267,3.77c-0,14.707 -12.102,26.809 -26.809,26.809c-0.936,0 -1.872,-0.049 -2.803,-0.147l-22.824,0c-1.019,0.115 -2.044,0.172 -3.07,0.172c-15.104,-0 -27.533,-12.429 -27.533,-27.534c-0,-1.026 0.057,-2.05 0.171,-3.07l0,-549.949Z" style="fill:#6e6f71;fill-rule:nonzero;"/><path d="M1391.03,5214.61l36.228,0l0,-19.563c0,-117.743 -64.487,-157.957 -150.711,-157.957c-52.341,0.607 -103.554,15.382 -148.175,42.75c-4.718,3.17 -10.276,4.864 -15.961,4.864c-10.35,0 -19.923,-5.614 -24.977,-14.646l-7.608,-12.317c-3.809,-4.85 -5.88,-10.841 -5.88,-17.007c-0,-10.154 5.616,-19.515 14.575,-24.294c58.65,-35.138 125.815,-53.559 194.185,-53.256c144.914,0 227.153,81.152 227.153,234.399l0,362.286c0.178,1.248 0.267,2.508 0.267,3.769c-0,14.707 -12.102,26.809 -26.81,26.809c-0.936,0 -1.871,-0.049 -2.802,-0.146l-19.201,-0c-1.156,0.149 -2.32,0.224 -3.485,0.224c-14.906,0 -27.171,-12.266 -27.171,-27.171c-0,-1.166 0.074,-2.33 0.224,-3.485l-0,-50.358c-0.166,-15.414 1.047,-30.812 3.623,-46.01l-3.261,-0c-34.131,84.14 -115.713,139.96 -206.503,141.291c-103.251,0 -206.502,-60.502 -206.502,-178.245c-0,-201.068 255.049,-211.937 372.792,-211.937Zm-151.798,317.725c117.743,-0 186.939,-121.366 186.939,-228.24l0,-28.983l-34.055,0c-96.005,0 -289.828,3.623 -289.828,140.567c0.724,58.69 46.01,116.656 136.944,116.656Z" style="fill:#6e6f71;fill-rule:nonzero;"/><path d="M1626.51,5008.11c-0.114,-1.02 -0.171,-2.045 -0.171,-3.07c-0,-15.105 12.429,-27.534 27.533,-27.534c1.026,-0 2.051,0.057 3.07,0.172l21.737,-0c0.672,-0.05 1.344,-0.075 2.017,-0.075c14.906,-0 27.172,12.265 27.172,27.171c-0,1.115 -0.069,2.229 -0.206,3.336l0,70.283c-0.015,14.738 -1.593,29.432 -4.71,43.837l2.536,-0c38.124,-91.546 125.607,-153.489 224.618,-159.044c112.67,0 170.998,52.169 188.026,152.885l1.449,-0c39.997,-89.099 127.058,-148.356 224.617,-152.885c148.175,0 202.518,86.224 202.518,236.573l-0,358.3c0.111,1.007 0.167,2.019 0.167,3.032c0,15.104 -12.429,27.533 -27.534,27.533c-0.902,0 -1.804,-0.044 -2.703,-0.133l-22.099,0c-1.02,0.115 -2.045,0.172 -3.07,0.172c-15.105,-0 -27.534,-12.429 -27.534,-27.534c0,-1.026 0.057,-2.05 0.172,-3.07l-0,-337.65c-0,-99.266 -20.288,-181.143 -130.785,-181.143c-122.815,0 -205.416,128.612 -205.416,253.6l-0,264.469c0.217,1.369 0.326,2.754 0.326,4.14c-0,14.508 -11.939,26.447 -26.447,26.447c-0.956,-0 -1.912,-0.052 -2.862,-0.155l-23.187,-0c-1.019,0.114 -2.044,0.171 -3.07,0.171c-15.104,0 -27.533,-12.429 -27.533,-27.533c-0,-1.026 0.057,-2.051 0.171,-3.07l0,-336.926c0,-92.021 -13.404,-181.143 -128.611,-181.143c-123.902,0 -208.677,131.148 -208.677,253.6l0,264.469c0.178,1.248 0.267,2.508 0.267,3.769c-0,14.707 -12.102,26.809 -26.809,26.809c-0.936,0 -1.872,-0.049 -2.803,-0.146l-22.824,-0c-1.019,0.114 -2.044,0.171 -3.07,0.171c-15.104,0 -27.533,-12.429 -27.533,-27.533c-0,-1.026 0.057,-2.051 0.171,-3.07l1.087,-549.225Z" style="fill:#6e6f71;fill-rule:nonzero;"/><path d="M2926.75,4963.18c162.666,0 253.599,117.743 253.599,289.829c0,0.011 0,0.023 0,0.034c0,16.695 -13.737,30.432 -30.431,30.432c-0.484,0 -0.967,-0.011 -1.45,-0.034l-438.003,-0c3.623,155.42 110.497,244.18 236.935,244.18c58.146,-0.264 114.554,-20.045 160.13,-56.154c4.709,-4.462 10.955,-6.951 17.443,-6.951c9.662,-0 18.518,5.521 22.771,14.197l9.781,14.853c3.129,4.659 4.801,10.145 4.801,15.756c-0,9.822 -5.121,18.965 -13.495,24.096c-58.567,45.04 -130.096,70.069 -203.967,71.37c-3.349,0.109 -6.699,0.164 -10.05,0.164c-169.131,-0 -308.305,-139.174 -308.305,-308.305c0,-4.283 0.09,-8.565 0.268,-12.844c-0,-200.344 134.77,-320.623 299.973,-320.623Zm170.998,259.759c-5.072,-128.611 -82.601,-192.011 -173.897,-192.011c-108.622,-0.062 -200.42,83.823 -210.125,192.011l384.022,-0Z" style="fill:#6e6f71;fill-rule:nonzero;"/><path d="M3574.88,4963.18c73.551,-0.923 145.221,23.522 202.88,69.197c7.54,4.778 12.123,13.107 12.123,22.034c-0,7.327 -3.088,14.326 -8.501,19.266l-8.332,13.405c-10.869,17.027 -24.273,17.027 -41.301,6.159c-43.783,-35.313 -98.095,-55.074 -154.333,-56.155c-0.935,-0.011 -1.87,-0.016 -2.805,-0.016c-129.184,-0 -235.486,106.302 -235.486,235.485c0,3.751 0.09,7.501 0.269,11.248c-0.136,3.269 -0.205,6.541 -0.205,9.813c0,129.183 106.302,235.485 235.486,235.485c1.276,0 2.552,-0.01 3.827,-0.031c62.932,-0.564 123.671,-23.421 171.362,-64.487c4.59,-4.94 11.038,-7.751 17.782,-7.751c9.803,-0 18.685,5.938 22.431,14.997l8.333,12.318c3.557,4.934 5.473,10.866 5.473,16.949c-0,9.602 -4.772,18.601 -12.719,23.989c-61.037,50.69 -138.031,78.28 -217.371,77.892c-3.8,0.14 -7.602,0.21 -11.405,0.21c-169.528,0 -309.029,-139.501 -309.029,-309.03c-0,-3.452 0.058,-6.904 0.173,-10.354c-0.098,-3.196 -0.148,-6.393 -0.148,-9.59c0,-170.721 140.483,-311.203 311.204,-311.203c3.431,-0 6.862,0.057 10.292,0.17Z" style="fill:#6e6f71;fill-rule:nonzero;"/><path d="M3882.1,4765.37c-0.217,-1.369 -0.326,-2.754 -0.326,-4.14c-0,-14.509 11.938,-26.447 26.447,-26.447c0.956,-0 1.911,0.052 2.862,0.155l23.186,0c1.019,-0.114 2.044,-0.172 3.07,-0.172c15.104,0 27.534,12.43 27.534,27.534c-0,1.026 -0.058,2.051 -0.172,3.07l-0,304.682c0.023,16.657 -1.554,33.278 -4.71,49.634l2.174,-0c43.85,-95.141 139.421,-156.398 244.181,-156.508c151.797,0 205.053,86.224 205.053,236.573l0,358.3c0,19.564 -9.419,30.432 -28.983,30.432l-23.186,0c-1.019,0.115 -2.044,0.172 -3.07,0.172c-15.104,-0 -27.534,-12.429 -27.534,-27.534c0,-1.026 0.058,-2.05 0.172,-3.07l0,-336.201c0,-96.006 -14.491,-181.143 -133.321,-181.143c-128.611,0 -230.776,105.788 -230.776,253.6l-0,264.469c0.114,1.019 0.172,2.044 0.172,3.07c-0,15.104 -12.43,27.533 -27.534,27.533c-1.026,0 -2.051,-0.057 -3.07,-0.171l-23.186,-0c-0.951,0.103 -1.906,0.155 -2.862,0.155c-14.509,0 -26.447,-11.938 -26.447,-26.447c-0,-1.386 0.109,-2.771 0.326,-4.14l-0,-793.406Z" style="fill:#6e6f71;fill-rule:nonzero;"/><path d="M4791.44,4963.18c162.666,0 253.6,117.743 253.6,289.829c-0,0.006 -0,0.013 -0,0.019c-0,16.695 -13.738,30.432 -30.432,30.432c-0.363,0 -0.725,-0.006 -1.087,-0.019l-438.003,-0c3.622,155.42 110.497,244.18 236.572,244.18c58.257,-0.267 114.778,-20.043 160.493,-56.154c4.653,-4.463 10.857,-6.958 17.304,-6.958c9.607,0 18.399,5.538 22.547,14.204l9.782,14.853c3.197,4.691 4.907,10.238 4.907,15.915c0,9.715 -5.01,18.773 -13.24,23.937c-58.64,44.904 -130.122,69.917 -203.967,71.37c-3.683,0.132 -7.368,0.198 -11.054,0.198c-169.33,0 -308.667,-139.337 -308.667,-308.667c-0,-3.569 0.062,-7.138 0.185,-10.705c0,-202.155 135.858,-322.434 301.06,-322.434Zm171.361,259.759c-4.71,-128.611 -82.601,-192.011 -173.897,-192.011c-108.609,-0.218 -200.401,83.806 -209.764,192.011l383.661,-0Z" style="fill:#6e6f71;fill-rule:nonzero;"/><path d="M5456.96,5214.61l36.228,0l0,-19.563c0,-117.743 -64.487,-157.957 -150.711,-157.957c-52.258,0.397 -103.409,15.191 -147.812,42.75c-4.766,3.184 -10.37,4.884 -16.101,4.884c-10.413,-0 -20.056,-5.612 -25.2,-14.666l-7.245,-12.317c-3.877,-4.872 -5.989,-10.918 -5.989,-17.144c-0,-10.051 5.503,-19.334 14.321,-24.157c58.65,-35.138 125.815,-53.559 194.185,-53.256c144.915,0 227.153,81.152 227.153,234.399l0,362.286c0.178,1.248 0.267,2.508 0.267,3.769c-0,14.707 -12.102,26.809 -26.809,26.809c-0.936,0 -1.872,-0.049 -2.803,-0.146l-21.375,-0c-1.155,0.149 -2.319,0.224 -3.485,0.224c-14.905,0 -27.171,-12.266 -27.171,-27.171c-0,-1.166 0.075,-2.33 0.224,-3.485l0,-50.358c-0.165,-15.414 1.047,-30.812 3.623,-46.01l-2.536,-0c-33.927,83.667 -114.789,139.385 -205.053,141.291c-103.252,0 -206.503,-60.502 -206.503,-178.245c-0,-201.068 255.049,-211.937 372.792,-211.937Zm-151.798,317.725c117.743,-0 186.939,-121.366 186.939,-228.24l0,-28.983l-34.054,0c-96.006,0 -289.829,3.623 -289.829,140.567c0.725,58.69 45.648,116.656 136.944,116.656Z" style="fill:#6e6f71;fill-rule:nonzero;"/><path d="M5693.53,5008.11c-0.177,-1.249 -0.266,-2.509 -0.266,-3.77c-0,-14.707 12.102,-26.809 26.809,-26.809c0.936,-0 1.871,0.049 2.802,0.147l19.564,-0c1.107,-0.143 2.223,-0.215 3.339,-0.215c14.31,-0 26.085,11.775 26.085,26.084c-0,0.677 -0.027,1.352 -0.079,2.027l-0,43.836c0.111,13.851 -1.102,27.681 -3.623,41.301l2.174,-0c39.546,-81.016 123.671,-131.206 213.748,-127.525c164.116,0 265.918,131.148 265.918,320.623c-0,189.475 -115.569,320.985 -274.613,320.985c-85.366,0.994 -164.056,-47.322 -201.793,-123.902l-2.173,0c3.263,17.684 4.84,35.637 4.709,53.619l0,268.091c0.115,1.019 0.172,2.044 0.172,3.07c0,15.105 -12.429,27.534 -27.534,27.534c-1.025,-0 -2.05,-0.058 -3.07,-0.172l-22.824,0c-0.931,0.098 -1.866,0.147 -2.802,0.147c-14.707,-0 -26.809,-12.102 -26.809,-26.809c-0,-1.262 0.089,-2.521 0.266,-3.77l0,-794.492Zm273.164,520.966c108.685,0 198.17,-89.847 198.17,-245.267c-0,-149.624 -80.428,-245.267 -193.098,-245.267c-102.165,-0 -198.171,72.457 -198.171,246.354c0,122.452 68.11,244.18 193.099,244.18Z" style="fill:#6e6f71;fill-rule:nonzero;"/></g><defs><linearGradient id="_Linear1" x1="0" y1="0" x2="1" y2="0" gradientUnits="userSpaceOnUse" gradientTransform="matrix(1228.15,-2633.6,2633.6,1228.15,4375.61,3839.44)"><stop offset="0" style="stop-color:#d4202c;stop-opacity:1"/><stop offset="0.32" style="stop-color:#ea7123;stop-opacity:0.4"/><stop offset="0.43" style="stop-color:#f08521;stop-opacity:0.25"/><stop offset="0.55" style="stop-color:#f4941f;stop-opacity:0.14"/><stop offset="0.68" style="stop-color:#f79f1e;stop-opacity:0.06"/><stop offset="0.82" style="stop-color:#f8a51d;stop-opacity:0.02"/><stop offset="1" style="stop-color:#f9a71d;stop-opacity:0"/></linearGradient><linearGradient id="_Linear2" x1="0" y1="0" x2="1" y2="0" gradientUnits="userSpaceOnUse" gradientTransform="matrix(-35499.1,120514,-120514,-35499.1,46893.5,12003.9)"><stop offset="0" style="stop-color:#d4202c;stop-opacity:1"/><stop offset="0.32" style="stop-color:#ea7123;stop-opacity:0.4"/><stop offset="0.43" style="stop-color:#f08521;stop-opacity:0.25"/><stop offset="0.55" style="stop-color:#f4941f;stop-opacity:0.14"/><stop offset="0.68" style="stop-color:#f79f1e;stop-opacity:0.06"/><stop offset="0.82" style="stop-color:#f8a51d;stop-opacity:0.02"/><stop offset="1" style="stop-color:#f9a71d;stop-opacity:0"/></linearGradient></defs></svg>