<?xml version="1.0" encoding="UTF-8" standalone="no"?><!DOCTYPE svg PUBLIC "-//W3C//DTD SVG 1.1//EN" "http://www.w3.org/Graphics/SVG/1.1/DTD/svg11.dtd"><svg width="100%" height="100%" viewBox="0 0 6671 6667" version="1.1" xmlns="http://www.w3.org/2000/svg" xmlns:xlink="http://www.w3.org/1999/xlink" xml:space="preserve" xmlns:serif="http://www.serif.com/" style="fill-rule:evenodd;clip-rule:evenodd;stroke-linejoin:round;stroke-miterlimit:2;"><rect id="siteground-vertical" x="1.682" y="0" width="6666.67" height="6666.67" style="fill:none;"/><g><g><path d="M533.359,5093.56c-116.589,-195.219 -382.304,-84.052 -325.365,140.991c75.919,303.674 444.665,376.881 580.234,645.307c75.918,149.125 27.113,295.539 -86.764,360.612c-113.878,65.073 -314.519,92.187 -436.531,2.711c-59.65,-46.093 -56.939,-78.629 -86.764,5.423c-10.845,27.114 -27.114,56.939 -62.361,27.114c-35.248,-29.825 -51.516,-187.085 37.959,-246.735c89.475,-59.65 94.898,-13.557 146.414,37.959c127.434,105.744 290.117,73.207 330.787,-13.557c40.671,-86.763 0,-143.702 -54.227,-203.352c-54.228,-59.65 -200.642,-162.683 -303.674,-281.983c-103.032,-119.3 -235.889,-330.787 -170.816,-504.315c65.073,-173.528 225.044,-290.117 422.974,-189.796c116.589,59.65 230.466,192.507 165.393,328.076c-46.093,92.187 -184.373,122.012 -249.446,27.114c-65.073,-94.898 122.012,-84.053 89.475,-138.28l2.712,2.711Z" style="fill:#231f20;"/><path d="M1048.52,5408.08c5.423,165.394 -184.373,154.548 -189.796,-5.423c-0.15,-2.048 -0.225,-4.101 -0.225,-6.155c-0,-46.109 37.942,-84.052 84.052,-84.052c3.703,-0 7.401,0.245 11.071,0.732c22.153,2.84 42.945,12.29 59.65,27.114c19.707,17.144 31.487,41.685 32.537,67.784l2.711,0Z" style="fill:#231f20;"/><path d="M874.991,5782.25l-8.134,5.423c-81.341,46.093 -56.938,-46.093 -13.556,-100.321c43.381,-54.227 81.341,-75.918 113.877,-70.495c28.338,1.473 52.595,21.32 59.65,48.804c21.691,105.744 -97.609,401.283 29.825,479.913c23.331,16.096 55.546,11.323 73.207,-10.845c24.403,-27.114 27.114,-73.207 56.939,-81.342c29.825,-8.134 24.402,2.712 29.825,37.96c8.134,105.743 -37.959,257.58 -184.373,206.064c-146.414,-51.516 -124.723,-306.385 -122.012,-441.954c0,-8.134 -2.711,-89.475 -32.536,-73.207l-2.712,0Z" style="fill:#231f20;"/><path d="M1807.7,5597.88c-8.538,-26.83 -34.237,-44.707 -62.361,-43.382l-151.837,8.134l-170.817,8.134l27.114,-244.023c25.306,-236.793 26.21,-382.303 2.711,-436.531c-23.498,-54.227 -50.612,-71.399 -81.341,-51.516c-59.65,10.846 -75.918,116.589 -81.341,311.808c-0.264,145.786 6.976,291.489 21.691,436.531l-86.764,24.402c-24.415,6.446 -48.053,15.538 -70.495,27.114c-10.045,6.335 -15.388,18.091 -13.557,29.825c0.926,18.788 5.532,37.213 13.557,54.227l108.455,249.446l100.32,227.756c28.922,68.688 67.785,102.128 116.589,100.32c48.805,-1.807 71.4,-7.23 67.784,-16.268c-3.615,-9.038 -7.23,-31.633 -10.845,-67.784c-41.814,-90.705 -71.882,-186.377 -89.475,-284.694c-8.106,-75.638 -11.727,-151.689 -10.846,-227.755c149.126,-35.248 249.446,-24.403 336.21,-48.805l5.423,-0c32.536,-21.691 13.557,-10.846 27.114,-21.691c9.45,-9.422 10.609,-24.491 2.711,-35.248Zm-447.376,460.933l-5.423,5.423l-8.134,-0l-10.845,-24.402c-8.135,-18.98 -43.382,-138.28 -43.382,-138.28c-0,-0 -29.825,-111.166 -35.248,-122.012c-1.735,-6.207 -1.735,-12.773 -0,-18.98c2.41,-6.135 6.109,-11.683 10.845,-16.268c11.033,-6.857 22.872,-12.322 35.248,-16.268l8.134,-0l5.423,8.134l-0,24.402l8.134,56.939l27.114,168.105l8.134,62.362l-0,10.845Z" style="fill:#231f20;fill-rule:nonzero;"/><path d="M2325.58,6118.46c-92.187,113.878 -222.332,219.621 -366.035,178.951c-84.053,-29.825 -138.28,-111.166 -165.394,-211.487c-24.876,-97.651 -26.733,-199.76 -5.423,-298.251c32.537,-151.837 124.724,-276.56 230.467,-276.56c200.641,18.98 303.674,241.312 200.641,398.572c-56.938,86.764 -176.239,130.146 -233.177,159.971c-56.939,29.825 -37.96,16.268 -35.248,56.939c8.134,100.32 178.95,100.32 287.405,-124.724c10.846,-21.691 78.63,-108.454 122.012,-84.052c92.186,56.939 -24.403,187.085 -35.248,200.641Zm-420.263,-138.28c119.301,-37.959 219.622,-143.702 227.756,-200.641c16.268,-108.455 -149.126,-200.641 -208.776,-24.402c-16.268,46.093 -18.98,143.702 -18.98,222.332l0,2.711Z" style="fill:#231f20;"/><path d="M3133.56,5722.6c-8.135,89.475 127.434,558.543 29.825,566.677c-97.61,8.134 -94.898,10.845 -108.455,-21.691c-13.557,-32.537 43.382,-271.137 -5.423,-197.93c-10.845,16.268 -8.134,18.979 -27.114,48.804c-159.971,287.406 -379.592,211.487 -507.026,-21.691c-84.49,-169.341 -117.49,-359.801 -94.898,-547.697c35.248,-333.498 178.95,-772.74 515.16,-702.245c265.715,56.939 81.342,412.129 -10.845,319.942c-219.621,-479.912 -656.152,680.554 -170.816,959.826c140.991,81.341 260.291,-181.662 230.466,-298.251c-29.825,-116.589 -24.402,-84.053 -65.073,-73.207c-40.67,10.845 -138.28,103.032 -170.816,73.207c-32.537,-29.825 -56.939,-173.528 16.268,-176.239c73.207,-2.712 138.28,24.402 241.312,-100.321c103.032,-124.723 170.816,-78.63 154.548,43.382c-8.134,54.227 -21.691,84.052 -27.113,124.723l-0,2.711Z" style="fill:#231f20;"/><path d="M3757.18,5549.07c-80.105,-58.032 -177.792,-86.764 -276.56,-81.341c-146.414,16.269 -284.694,113.878 -268.426,268.426c5.423,65.073 13.557,347.056 37.959,463.645c5.627,39.68 32.808,73.133 70.496,86.763c39.39,12.171 82.21,-6.346 100.321,-43.382c24.402,-56.938 -2.712,-108.454 -16.268,-157.259c-24.997,-104.215 -41.321,-210.321 -48.805,-317.23c-16.268,-173.528 246.735,-195.219 306.385,-94.898c-43.382,67.784 18.979,111.166 100.321,48.804c81.341,-62.361 43.382,-135.568 -8.135,-176.239l2.712,2.711Z" style="fill:#231f20;"/><path d="M4115.08,6305.55c363.324,-62.362 501.603,-623.615 51.516,-816.123c-469.067,-151.836 -490.758,908.31 -51.516,816.123Zm-165.394,-455.51c43.382,-441.954 333.499,-235.89 371.458,51.516c37.959,287.405 -433.819,458.221 -371.458,-51.516Z" style="fill:#231f20;"/><path d="M4638.37,5725.31c-56.938,124.723 -35.247,629.038 225.044,390.437c56.939,-51.516 65.073,-219.621 43.382,-363.324c-5.423,-32.536 -32.536,-132.857 -43.382,-162.682c-10.845,-29.825 18.98,-92.187 67.784,-108.455c40.776,-11.412 84.131,9.679 100.321,48.805c27.114,65.073 8.134,170.816 5.423,214.198c-8.134,130.146 -29.825,287.406 16.268,371.458c18.98,35.248 46.093,40.671 48.805,65.073c2.711,94.898 -111.166,157.259 -151.837,97.609c-10.845,-16.268 -2.711,-40.67 -18.98,-54.227c-214.198,192.507 -450.087,40.67 -444.664,-233.178c-0,-59.65 -8.134,-157.26 13.556,-244.023c21.691,-86.764 27.114,-130.146 62.362,-165.394c35.248,-35.248 67.784,-13.557 84.053,-2.711c16.268,10.845 8.134,100.32 -8.135,143.702l0,2.712Z" style="fill:#231f20;"/><path d="M5592.78,6153.71c37.959,-130.146 84.053,-341.633 54.227,-420.262c-29.825,-78.63 -206.064,-159.971 -284.694,-40.671c-48.804,73.207 -51.516,336.21 10.846,490.758c16.268,37.96 -13.557,89.476 -59.65,103.032c-178.951,59.651 -40.671,-436.53 -143.703,-596.501c-21.691,-35.248 -48.805,-37.959 -54.227,-62.362c-10.846,-92.186 97.609,-149.125 146.414,-92.186c13.557,16.268 5.422,40.67 24.402,51.516c197.93,-184.374 493.47,-46.094 512.449,216.909c1.424,136.96 -22.477,273.01 -70.495,401.283c-11.511,29.698 -28.018,57.21 -48.805,81.341c-22.982,22.384 -59.676,23.567 -84.053,2.712c-32.536,-21.691 -16.268,-94.898 -2.711,-138.28l0,2.711Z" style="fill:#231f20;"/><path d="M6381.79,5576.19c16.268,-140.991 -43.382,-555.831 -151.837,-566.676c-29.825,-2.712 -35.248,-73.207 -16.268,-116.589c18.98,-43.382 67.784,-56.939 146.414,-24.403c124.723,51.516 135.569,526.006 138.28,666.998c2.711,140.991 -5.423,306.385 16.268,436.53c6.583,41.114 18.43,81.211 35.248,119.301c21.691,51.516 46.093,86.764 29.825,116.589c-16.268,29.825 -130.146,89.475 -162.682,56.938c-32.537,-32.536 -32.537,-62.361 -37.959,-108.454c-187.085,298.25 -488.047,65.073 -528.718,-225.044c-40.67,-290.117 211.487,-593.79 531.429,-355.19Zm-292.828,553.12c235.889,170.816 311.808,-271.137 192.507,-436.531c-119.3,-165.393 -509.738,189.796 -192.507,436.531Z" style="fill:#231f20;"/></g><g><path d="M2782.7,3463.35c-472.403,-157.468 -801.031,-609.332 -883.188,-1081.74c-225.932,-1314.51 1170.74,-2492.1 2560.56,-1841.69c13.692,294.396 -123.236,712.028 -492.943,842.11c1862.23,1177.59 267.011,3580.68 -1684.22,2793.34c-356.014,-184.853 -164.314,-513.481 212.239,-321.781c376.554,191.699 979.039,143.775 1328.21,-47.925c227.992,-119.852 423.133,-293.833 568.253,-506.636c52.65,-78.064 98.463,-160.527 136.929,-246.471c27.386,-68.464 123.235,-356.014 47.925,-390.246c-75.311,-34.232 -27.386,13.693 -34.232,34.232c-47.494,187.681 -139.033,361.372 -267.011,506.635c-153.47,180.581 -351.857,317.562 -575.099,397.093c-280.704,102.696 -602.485,116.389 -1047.5,20.539c27.386,-34.232 89.004,-123.235 123.236,-157.467l6.846,-0Zm1280.28,-2800.19c7.654,42.979 12.23,86.45 13.693,130.082c16.493,193.849 -59.761,384.482 -205.393,513.481l-102.696,95.85c527.175,328.629 801.031,1040.66 492.942,1540.44c-410.785,670.95 -1225.51,520.329 -1677.37,61.618c-451.864,-458.71 -403.939,-1109.12 -68.464,-1574.68c367.472,-482.823 940.534,-766.818 1547.29,-766.799Z" style="fill:#88be48;"/><path d="M2481.45,2141.99c102.696,-999.578 1252.89,-1198.12 1677.37,136.928c424.478,1335.05 -1834.84,1068.04 -1677.37,-136.928Zm937.959,657.257c910.575,34.232 472.404,-896.882 -123.235,-1102.27c-595.639,-205.393 -924.267,1102.27 123.235,1102.27Z" style="fill:#231f20;"/></g></g></svg>